/* XPM */
static char *result[] = {
/* columns rows colors chars-per-pixel */
"72 72 8 1 ",
"  c #25131A",
". c #1F3736",
"X c #3D253B",
"o c #523B40",
"O c #5C6B53",
"+ c #895A45",
"@ c #DFBBB3",
"# c None",
/* pixels */
"########################################################################",
"########################################################################",
"########################################################################",
"########################################################################",
"########################################################################",
"########################################################################",
"########################################################################",
"########################################################################",
"########################################################################",
"########################################################################",
"########################################################################",
"########################################################################",
"########################################################################",
"########################################################################",
"########################################################################",
"########################################################################",
"########################################################################",
"########################################################################",
"########################################################################",
"########################################################################",
"########################################################################",
"########################################################################",
"########################################################################",
"########################################################################",
"########################################################################",
"########################################################################",
"########################################################################",
"########################################################################",
"########################################################################",
"########################################################################",
"########################################################################",
"########################################################################",
"############################     #######################################",
"##########################  OOOOO  #####################################",
"######################### OOOOOOOO@ ####################################",
"######################## OOOOOOO@X@X ###################################",
"####################### OOOOOOOO@XXX@ ##################################",
"####################### OOOOOOOOXXXXX ##################################",
"###################### OOOOOOOOOXXXXX ##################################",
"###################### OOOOOOOOOXXXXX ##################################",
"###################### OOOOOOOOOXXXXX ##################################",
"###################### OOOOOOOOOXXXXX ##################################",
"###################### OOOOOOOOO@XXX@ ##################################",
"###################### OOOOOOOOOOX@X ###################################",
"###################### OOOOOOOOOOO@@@ ##################################",
"###################### OOOOOOOOOO@@@@ ##################################",
"############  ######### OOOOOOOOO@@@@@ #################################",
"############ X ######## OOOOOOOO@@@@@@ #################################",
"############ XX ####### OOOOOOOO@@@@@@@ ################################",
"#######   # oooX ###### OOOOOOOO@@@@@@@ ################################",
"####### XX  o++o ###### OOOOOOOO@@@@@@@ ################################",
"#   ### XXX  +++o ##### oOOOOOOOO@@@@@@. ###############################",
"# XX    XXXX ++++o  ## oOOOOOOOOO@@@@@@. ###############################",
"# XXXoo XXXooo+++++o   oOOOOOOOOO@@@@@@.. ##############################",
"## XXoo+oXX++oo++++++++oOOOOOOOOO@@@@@@.. ##############################",
"### XXoo+oo+++oo++++++ooOOOOOOOOOO@@@@@.. ##############################",
"#### Xooo+oo+++ooooooooOOOOOOOOOOO@@@@   ###############################",
"#### oXooo+oo+++o+++oOOOOOOOOOOOOO@@@@ #################################",
"#### ooooo++oo++o++++oOOOOOOOOOOO@@@@@ #################################",
"###  oooooo+ooooo++++oOOOOOOOOOOO@@@@ ##################################",
"## ooooooooOOOOOoo++++oOOOOOOOOOO@@@@ ##################################",
"# ooooooOOOOOOOOOOOo++oOOOOOOOOO@@@@. ##################################",
"# ooooOOOOOOOOOOOOoooooOOOOOOOO@@@@.. ##################################",
"# ooooOOOOOOOOOOOoooooOOOOOOOOO  .... ##################################",
"# ooooooOOOOOOOOooooOOOOOOOOOO. # ... ##################################",
"# OoooooOOOOOOOOooOOOOOOOOOOO.. # .. ###################################",
"# OOOOOoOOOOOOOOOooOOOOOOOO ... ##   ###################################",
" OOOOOOOOOOOOOOOOOOOOOOOOOO ... ########################################",
" OOOOOOOOOOOOOOOOOOOOO..OO # .. ########################################",
"    OOOO    ..OOOO   .... ###  #########################################",
"#### OO #### ..OO ### ... ##############################################",
"#####   #####    #####    ##############################################"
};
