/* XPM */
static char *result[] = {
/* columns rows colors chars-per-pixel */
"72 72 8 1 ",
"  c #25131A",
". c #1F3736",
"X c #3D253B",
"o c #523B40",
"O c #5C6B53",
"+ c #895A45",
"@ c #DFBBB3",
"# c None",
/* pixels */
"########################################################################",
"########################################################################",
"########################################################################",
"########################################################################",
"########################################################################",
"########################################################################",
"########################################################################",
"########################################################################",
"########################################################################",
"########################################################################",
"########################################################################",
"########################################################################",
"########################################################################",
"########################################################################",
"########################################################################",
"########################################################################",
"########################################################################",
"########################################################################",
"########################################################################",
"########################################################################",
"########################################################################",
"########################################################################",
"########################################################################",
"########################################################################",
"########################################################################",
"########################################################################",
"########################################################################",
"########################################################################",
"########################################################################",
"########################################################################",
"########################################################################",
"########################################################################",
"########################################################################",
"########################################################################",
"########################################################################",
"################################     ###################################",
"##############################  OOOOO  #################################",
"############################# OOOOOOOOO ################################",
"############################ OOOOOOOOOOO ###############################",
"########################### OOOOOOOOOO@OO ##############################",
"########################### OOOOOOOO@X@X@ ##############################",
"########################## OOOOOOOOO@XXX@ ##############################",
"########################## OOOOOOOOOXXXXX ##############################",
"########################## OOOOOOOOO@XXX@ ##############################",
"########################## OOOOOOOOO@X@X@ ##############################",
"########################## OOOOOOOOOOO@O ###############################",
"############  ############ OOOOOOOOOOOOO ###############################",
"############ X ########### OOOOOOOOOOO@@@ ##############################",
"############ XX ########## OOOOOOOOOO@@@@. #############################",
"#######   # oooX ########## OOOOOOOOO@@@@. #############################",
"####### XX  o++o ########## OOOOOOOO@@@@@ ##############################",
"#   ### XXX  +++o ######### OOOOOOOO@@@@@@ #############################",
"# XX    XXXX ++++o  ####### OOOOOOOO@@@@@@ #############################",
"# XXXoo XXXooo+++++o    ### oOOOOOOO@@@@@@ #############################",
"## XXoo+oXX++oo++++++++o   oOOOOOOOO@@@@@@. ############################",
"### XXoo+oo+++oo++++++++++ooOOOOOOOO@@@@@@. ############################",
"#### Xooo+oo+++ooooooOoooooOOOOOOOOOO@@@@@.. ###########################",
"#### oXooo+oo+++o+++oOOOOOOOOOOOOOOOO@@@@@.. ###########################",
"#### ooooo++oo++o++++oOOOOOOOOOOOOOOO@@@@@.. ###########################",
"###  oooooo+ooooo++++oOOOOOOOOOOOOOOO@@@@   ############################",
"## ooooooooOOOOOoo++++oOOOOOOOOOOOOOO@@@@ ##############################",
"# ooooooOOOOOOOOOOOo++oOOOOOOOOOOOOO@@@@@ ##############################",
"# ooooOOOOOOOOOOOOoooooOOOOOOOOOOOOO@@@@ ###############################",
"# ooooOOOOOOOOOOOoooooOOOOOOOOOOOOOO@@@@ ###############################",
"# ooooooOOOOOOOOooooOOOOOOOOOOOOOOO@@@@. ###############################",
"# OoooooOOOOOOOOooOOOOOOOOOOOOOOOO@@@@.. ###############################",
"# OOOOOoOOOOOOOOOooOOOOOOOOOOOOOOO  .... ###############################",
" OOOOOOOOOOOOOOOOOOOOOOOOOOOOOOOO ## ... ###############################",
" OOOOOOOOOOOOOOOOOOOOOOOOOOOO.OO. ## .. ################################",
"    OOOO    ..OOOO   ..OOOO   ... ###   ################################",
"#### OO #### ..OO ### ..OO ### .. ######################################",
"#####   #####    #####    #####   ######################################"
};
