/* XPM */
static char *result[] = {
/* columns rows colors chars-per-pixel */
"72 72 8 1 ",
"  c #25131A",
". c #1F3736",
"X c #3D253B",
"o c #523B40",
"O c #5C6B53",
"+ c #895A45",
"@ c #DFBBB3",
"# c None",
/* pixels */
"########################################################################",
"########################################################################",
"########################################################################",
"########################################################################",
"########################################################################",
"########################################################################",
"########################################################################",
"########################################################################",
"########################################################################",
"########################################################################",
"########################################################################",
"########################################################################",
"########################################################################",
"########################################################################",
"########################################################################",
"########################################################################",
"########################################################################",
"########################################################################",
"########################################################################",
"########################################################################",
"########################################################################",
"########################################################################",
"########################################################################",
"########################################################################",
"########################################################################",
"########################################################################",
"########################################################################",
"########################################################################",
"########################################################################",
"########################################################################",
"########################################################################",
"########################################################################",
"########################################################################",
"########################################################################",
"########################################################################",
"########################################################################",
"########################################################################",
"########################################################################",
"########################################################################",
"########################################################################",
"########################################################################",
"########################################################################",
"########################################################################",
"########################################################################",
"########################################################################",
"########################################################################",
"########################################################  ##############",
"####################################################### X ##############",
"###################################################### XX ##############",
"##################################################### Xooo #   #########",
"##################################################### o++o  XX #########",
"#################################################### o+++  XXX ###   ###",
"##################################################  o++++ XXXX    XX ###",
"##############################################    o+++++oooXXX ooXXX ###",
"#######################################       o++++++++oo++XXo+ooXX ####",
"###########################            ooooo++++++++++oo+++oo+ooXX #####",
"#################          OOOOOOOOOOOOOOOOoooooOoooooo+++oo+oooX ######",
"###########      OOOOOOOOOOOOOOOOOOOOOOOOOOOOOOOOo+++o+++oo+oooXo ######",
"#########  OOOOOOOOOOOOOOOOOOOOOOOOOOOOOOOOOOOOOo++++o++oo++ooooo ######",
"######## OOOOOOOOOOOOOOOOOOOOOOOOOOOOOOOOOOOOOOOo++++ooooo+oooooo  #####",
"####### OOOOOOOOOOOOOOOOOOOOOOOOOOOOOOOOOOOOOOOo++++ooOOOOOoooooooo ####",
"###### OOOOOOOOOOOOOOOOOOOOOOOOOOOOOOOOOOOOOOOOo++oOOOOOOOOOOOoooooo ###",
"###### OOOOOOOOOOOOOOOOOOOOOOOOOOOOOOOOOOOOOOOOoooooOOOOOOOOOOOOoooo ###",
"###### OOOOOOOOOOOOOOOOOOOOOOOOOOOOOOOOOOOOOOOOOoooooOOOOOOOOOOOoooo ###",
"##### OOOOOOOOOOOOOOOOOOOOOOOOOOOOOOOOOOOOOOOOOOOOooooOOOOOOOOoooooo ###",
"##### OOOOOOOOOOOOOOOOOOOOOOOOOOOOOOOOOOOOOOOOOOOOOOooOOOOOOOOoooooO ###",
"##### OOOOOOOOOOOOOOOOOOOOOOOOOOOOOOOOOOOOOOOOOOOOOooOOOOOOOOOoOOOOO ###",
"##### OOOOOOOOOOOOOOOOOOOOOOOOOOOOOOOOOOOOOOOOOOOOOOOOOOOOOOOOOOOOOOO ##",
"##### OOOOOOOOOOOOOOOOOOOOOOOOOOOOOOOOOOOOOOOOOOOOOOOOOOOOOOOOOOOOOOO ##",
"##### OOOOOOOOOOOOOOOOOOO@@@@@@@@@@@OOOO..   OOOO..   OOOO..   OOOO   ##",
"###### OOOOOOOOOOOO@@@@@@@@ ....     OO.. ### OO.. ### OO.. ### OO #####",
"#######                         #####    #####    #####    #####   #####"
};
