/* XPM */
static char *result[] = {
/* columns rows colors chars-per-pixel */
"72 72 8 1 ",
"  c #25131A",
". c #1F3736",
"X c #3D253B",
"o c #523B40",
"O c #5C6B53",
"+ c #895A45",
"@ c #DFBBB3",
"# c None",
/* pixels */
"########################################################################",
"########################################################################",
"########################################################################",
"########################################################################",
"########################################################################",
"########################################################################",
"########################################################################",
"########################################################################",
"########################################################################",
"########################################################################",
"########################################################################",
"########################################################################",
"########################################################################",
"########################################################################",
"########################################################################",
"########################################################################",
"########################################################################",
"########################################################################",
"########################################################################",
"########################################################################",
"########################################################################",
"########################################################################",
"########################################################################",
"########################################################################",
"########################################################################",
"########################################################################",
"########################################################################",
"########################################################################",
"########################################################################",
"########################################################################",
"########################################################################",
"########################################################################",
"########################################################################",
"########################################################################",
"########################################################################",
"########################################################################",
"########################################################################",
"########################################################################",
"########################################################################",
"########################################################################",
"########################################################################",
"########################################################################",
"########################################################################",
"########################################################################",
"########################################################################",
"########################################################################",
"#########################################################  #############",
"################      ################################## X #############",
"##############  OOOOOO   ############################## XX #############",
"############# OOOOOOOOOOO  ########################### Xooo #   ########",
"############ OOOOOOOOOOOOOO ########################## o++o  XX ########",
"########### OOOOOOOOOOOOOOOO  ####################### o+++  XXX ###   ##",
"########### OOOOOOOOOOOOOOOOOO    #################  o++++ XXXX    XX ##",
"########## OOOOOOOOOOOOOOOOOOOOOOO          ###    o+++++oooXXX ooXXX ##",
"########## OOOOOOOOOOOOOOOOOOOOOOOOOOOOOOOoo   o++++++++oo++XXo+ooXX ###",
"########## OOOO@OOOOOOOOOOOOOOOOOOOOOOOOOOOoo++++++++++oo+++oo+ooXX ####",
"########## OOOXX@XOOOOOOOOOOOOOOOOOOOOOOOOOOoooooOoooooo+++oo+oooX #####",
"########### O@@@X@@OOOOOOOOOOOOOOOOOOOOOOOOOOOOOOOo+++o+++oo+oooXo #####",
"########### OOXXXXXOOOOOOOOOOOOOOOOOOOOOOOOOOOOOOo++++o++oo++ooooo #####",
"############ @@@X@@@OOOOOOOOOOOOOOOOOOOOOOOOOOOOOo++++ooooo+oooooo  ####",
"#############  X@XOO@@@@@OOOOOOOOOOOOOOOOOOOOOOOo++++ooOOOOOoooooooo ###",
"###############  @O@@@@@@@@OOOOOOOOOOOOOOOOOOOOOo++oOOOOOOOOOOOoooooo ##",
"#################  @@@@@@@@@OOOOOOOOOOOOOOOOOOOOoooooOOOOOOOOOOOOoooo ##",
"###################  @@@@@@@@OOOOOOOOOOOOOOOOOOOOoooooOOOOOOOOOOOoooo ##",
"#####################  @@@@@@@OOOOOOOOOOOOOOOOOOOOOooooOOOOOOOOoooooo ##",
"####################### @@@@@@OOOOOOOOOOOOOOOOOOOOOOOooOOOOOOOOoooooO ##",
"######################## .@@@@OOOOOOOOOOOOOOOOOOOOOOooOOOOOOOOOoOOOOO ##",
"######################## ...@@@OO@OOOOOOOOOOOOOOOOOOOOOOOOOOOOOOOOOOOO #",
"######################## ... ....@@OOOOOOOOOOOOOOOOOOOOOOOOOOOOOOOOOOO #",
"######################## .. # ..    OOOO..   OOOO..   OOOO..   OOOO    #",
"########################    # .. ### OO.. ### OO.. ### OO.. ### OO #####",
"#############################   #####    #####    #####    #####   #####"
};
