/* XPM */
static char *result[] = {
/* columns rows colors chars-per-pixel */
"72 72 8 1 ",
"  c #25131A",
". c #1F3736",
"X c #3D253B",
"o c #523B40",
"O c #5C6B53",
"+ c #895A45",
"@ c #DFBBB3",
"# c None",
/* pixels */
"########################################################################",
"########################################################################",
"########################################################################",
"########################################################################",
"########################################################################",
"########################################################################",
"########################################################################",
"########################################################################",
"########################################################################",
"########################################################################",
"########################################################################",
"########################################################################",
"########################################################################",
"########################################################################",
"########################################################################",
"########################################################################",
"########################################################################",
"########################################################################",
"########################################################################",
"########################################################################",
"########################################################################",
"########################################################################",
"########################################################################",
"########################################################################",
"########################################################################",
"########################################################################",
"########################################################################",
"########################################################################",
"########################################################################",
"########################################################################",
"########################################################################",
"########################################################################",
"########################################################################",
"########################################################################",
"########################################################################",
"########################################################################",
"########################################################################",
"########################################################################",
"########################################################################",
"########################################################################",
"########################################################################",
"########################################################################",
"########################################################################",
"########################################################################",
"########################################################################",
"########################################################################",
"##############  ########################################################",
"############## X #######################################################",
"############## XX ######################################################",
"#########   # oooX #####################################################",
"######### XX  o++o #####################################################",
"###   ### XXX  +++o ####################################################",
"### XX    XXXX ++++o  ##################################################",
"### XXXoo XXXooo+++++o    ##############################################",
"#### XXoo+oXX++oo++++++++o       #######################################",
"##### XXoo+oo+++oo++++++++++ooooo            ###########################",
"###### Xooo+oo+++ooooooOoooooOOOOOOOOOOOOOOOO          #################",
"###### oXooo+oo+++o+++oOOOOOOOOOOOOOOOOOOOOOOOOOOOOOOOO      ###########",
"###### ooooo++oo++o++++oOOOOOOOOOOOOOOOOOOOOOOOOOOOOOOOOOOOOO  #########",
"#####  oooooo+ooooo++++oOOOOOOOOOOOOOOOOOOOOOOOOOOOOOOOOOOOOOOO ########",
"#### ooooooooOOOOOoo++++oOOOOOOOOOOOOOOOOOOOOOOOOOOOOOOOOOOOOOOO #######",
"### ooooooOOOOOOOOOOOo++oOOOOOOOOOOOOOOOOOOOOOOOOOOOOOOOOOOOOOOOO ######",
"### ooooOOOOOOOOOOOOoooooOOOOOOOOOOOOOOOOOOOOOOOOOOOOOOOOOOOOOOOO ######",
"### ooooOOOOOOOOOOOoooooOOOOOOOOOOOOOOOOOOOOOOOOOOOOOOOOOOOOOOOOO ######",
"### ooooooOOOOOOOOooooOOOOOOOOOOOOOOOOOOOOOOOOOOOOOOOOOOOOOOOOOOOO #####",
"### OoooooOOOOOOOOooOOOOOOOOOOOOOOOOOOOOOOOOOOOOOOOOOOOOOOOOOOOOOO #####",
"### OOOOOoOOOOOOOOOooOOOOOOOOOOOOOOOOOOOOOOOOOOOOOOOOOOOOOOOOOOOOO #####",
"## OOOOOOOOOOOOOOOOOOOOOOOOOOOOOOOOOOOOOOOOOOOOOOOOOOOOOOOOOOOOOOO #####",
"## OOOOOOOOOOOOOOOOOOOOOOOOOOOOOOOOOOOOOOOOOOOOOOOOOOOOOOOOOOOOOOO #####",
"##   OOOO   ..OOOO   ..OOOO   ..OOOO@@@@@@@@@@@OOOOOOOOOOOOOOOOOOO #####",
"##### OO ### ..OO ### ..OO ### ..OO     .... @@@@@@@@OOOOOOOOOOOO ######",
"#####   #####    #####    #####    #####                         #######"
};
