/* XPM */
static char *result[] = {
/* columns rows colors chars-per-pixel */
"72 72 8 1 ",
"  c #25131A",
". c #1F3736",
"X c #3D253B",
"o c #523B40",
"O c #5C6B53",
"+ c #895A45",
"@ c #DFBBB3",
"# c None",
/* pixels */
"########################################################################",
"########################################################################",
"########################################################################",
"########################################################################",
"########################################################################",
"########################################################################",
"########################################################################",
"########################################################################",
"########################################################################",
"########################################################################",
"########################################################################",
"########################################################################",
"########################################################################",
"########################################################################",
"########################################################################",
"########################################################################",
"########################################################################",
"########################################################################",
"########################################################################",
"########################################################################",
"########################################################################",
"########################################################################",
"########################################################################",
"########################################################################",
"########################################################################",
"########################################################################",
"########################################################################",
"########################################################################",
"########################################################################",
"########################################################################",
"########################################################################",
"########################################################################",
"#############################     ######################################",
"###########################  OOOOO  ####################################",
"########################## OOOOOOOOO ###################################",
"######################### OOOOOOOOO@O ##################################",
"######################## OOOOOOOO@X@X@ #################################",
"######################## OOOOOOOO@XXX@ #################################",
"####################### OOOOOOOOOXXXXX #################################",
"####################### OOOOOOOOOXXXXX #################################",
"####################### OOOOOOOOOXXXXX #################################",
"####################### OOOOOOOOO@XXX@ #################################",
"####################### OOOOOOOOO@X@X@ #################################",
"####################### OOOOOOOOOOO@O ##################################",
"####################### OOOOOOOOOOO@@@ #################################",
"####################### OOOOOOOOOO@@@@. ################################",
"############  ########## OOOOOOOOO@@@@. ################################",
"############ X ######### OOOOOOOO@@@@@ #################################",
"############ XX ######## OOOOOOOO@@@@@@ ################################",
"#######   # oooX ###### OOOOOOOOO@@@@@@ ################################",
"####### XX  o++o ###### OOOOOOOOO@@@@@@ ################################",
"#   ### XXX  +++o ##### oOOOOOOOO@@@@@@. ###############################",
"# XX    XXXX ++++o  ## oOOOOOOOOO@@@@@@. ###############################",
"# XXXoo XXXooo+++++o   oOOOOOOOOOO@@@@@.. ##############################",
"## XXoo+oXX++oo++++++++oOOOOOOOOOO@@@@@.. ##############################",
"### XXoo+oo+++oo++++++ooOOOOOOOOOO@@@@@.. ##############################",
"#### Xooo+oo+++ooooooooOOOOOOOOOOO@@@@   ###############################",
"#### oXooo+oo+++o+++oOOOOOOOOOOOOO@@@@ #################################",
"#### ooooo++oo++o++++oOOOOOOOOOOO@@@@@ #################################",
"###  oooooo+ooooo++++oOOOOOOOOOOO@@@@ ##################################",
"## ooooooooOOOOOoo++++oOOOOOOOOOO@@@@ ##################################",
"# ooooooOOOOOOOOOOOo++oOOOOOOOOO@@@@. ##################################",
"# ooooOOOOOOOOOOOOoooooOOOOOOOO@@@@.. ##################################",
"# ooooOOOOOOOOOOOoooooOOOOOOOOO  .... ##################################",
"# ooooooOOOOOOOOooooOOOOOOOOOO. # ... ##################################",
"# OoooooOOOOOOOOooOOOOOOOOOOO.. # .. ###################################",
"# OOOOOoOOOOOOOOOooOOOOOOOO ... ##   ###################################",
" OOOOOOOOOOOOOOOOOOOOOOOOOO ... ########################################",
" OOOOOOOOOOOOOOOOOOOOO..OO # .. ########################################",
"    OOOO    ..OOOO   .... ###  #########################################",
"#### OO #### ..OO ### ... ##############################################",
"#####   #####    #####    ##############################################"
};
