/* XPM */
static char *result[] = {
/* columns rows colors chars-per-pixel */
"72 72 8 1 ",
"  c #25131A",
". c #1F3736",
"X c #3D253B",
"o c #523B40",
"O c #5C6B53",
"+ c #895A45",
"@ c #DFBBB3",
"# c None",
/* pixels */
"########################################################################",
"########################################################################",
"########################################################################",
"########################################################################",
"########################################################################",
"########################################################################",
"########################################################################",
"########################################################################",
"########################################################################",
"########################################################################",
"########################################################################",
"########################################################################",
"########################################################################",
"########################################################################",
"########################################################################",
"########################################################################",
"########################################################################",
"########################################################################",
"########################################################################",
"########################################################################",
"########################################################################",
"########################################################################",
"########################################################################",
"########################################################################",
"########################################################################",
"########################################################################",
"########################################################################",
"########################################################################",
"########################################################################",
"########################################################################",
"########################################################################",
"########################################################################",
"########################################################################",
"########################################################################",
"########################################################################",
"###################################     ################################",
"#################################  OOOOO  ##############################",
"################################ OOOOOOOOO #############################",
"############################### OOOOOOOOOOO ############################",
"############################## OO@OOOOOOOOOO ###########################",
"############################## @X@X@OOOOOOOO ###########################",
"############################## @XXX@OOOOOOOOO ##########################",
"############################## XXXXXOOOOOOOOO ##########################",
"############################## @XXX@OOOOOOOOO ##########################",
"############################## @X@X@OOOOOOOOO ##########################",
"############################### O@OOOOOOOOOOO ##########################",
"############################### OOOOOOOOOOOOO ############  ############",
"############################## @@@OOOOOOOOOOO ########### X ############",
"############################# .@@@@OOOOOOOOOO ########## XX ############",
"############################# .@@@@OOOOOOOOO ########## Xooo #   #######",
"############################## @@@@@OOOOOOOO ########## o++o  XX #######",
"############################# @@@@@@OOOOOOOO ######### o+++  XXX ###   #",
"############################# @@@@@@OOOOOOOO #######  o++++ XXXX    XX #",
"############################# @@@@@@OOOOOOOo ###    o+++++oooXXX ooXXX #",
"############################ .@@@@@@OOOOOOOOo   o++++++++oo++XXo+ooXX ##",
"############################ .@@@@@@OOOOOOOOoo++++++++++oo+++oo+ooXX ###",
"########################### ..@@@@@OOOOOOOOOOoooooOoooooo+++oo+oooX ####",
"########################### ..@@@@@OOOOOOOOOOOOOOOOo+++o+++oo+oooXo ####",
"########################### ..@@@@@OOOOOOOOOOOOOOOo++++o++oo++ooooo ####",
"############################   @@@@OOOOOOOOOOOOOOOo++++ooooo+oooooo  ###",
"############################## @@@@OOOOOOOOOOOOOOo++++ooOOOOOoooooooo ##",
"############################## @@@@@OOOOOOOOOOOOOo++oOOOOOOOOOOOoooooo #",
"############################### @@@@OOOOOOOOOOOOOoooooOOOOOOOOOOOOoooo #",
"############################### @@@@OOOOOOOOOOOOOOoooooOOOOOOOOOOOoooo #",
"############################### .@@@@OOOOOOOOOOOOOOOooooOOOOOOOOoooooo #",
"############################### ..@@@@OOOOOOOOOOOOOOOOooOOOOOOOOoooooO #",
"############################### ....  OOOOOOOOOOOOOOOooOOOOOOOOOoOOOOO #",
"############################### ... ## OOOOOOOOOOOOOOOOOOOOOOOOOOOOOOOO ",
"################################ .. ## .OO.OOOOOOOOOOOOOOOOOOOOOOOOOOOO ",
"################################   ### ...   OOOO..   OOOO..    OOOO    ",
"###################################### .. ### OO.. ### OO.. #### OO ####",
"######################################   #####    #####    #####   #####"
};
