/* XPM */
static char *result[] = {
/* columns rows colors chars-per-pixel */
"72 72 8 1 ",
"  c #25131A",
". c #1F3736",
"X c #3D253B",
"o c #523B40",
"O c #5C6B53",
"+ c #895A45",
"@ c #DFBBB3",
"# c None",
/* pixels */
"########################################################################",
"########################################################################",
"########################################################################",
"########################################################################",
"########################################################################",
"########################################################################",
"########################################################################",
"########################################################################",
"########################################################################",
"########################################################################",
"########################################################################",
"########################################################################",
"########################################################################",
"########################################################################",
"########################################################################",
"########################################################################",
"########################################################################",
"########################################################################",
"########################################################################",
"########################################################################",
"########################################################################",
"########################################################################",
"########################################################################",
"########################################################################",
"########################################################################",
"########################################################################",
"########################################################################",
"########################################################################",
"########################################################################",
"########################################################################",
"########################################################################",
"########################################################################",
"########################################################################",
"########################################################################",
"########################################################################",
"########################################################################",
"########################################################################",
"########################################################################",
"########################################################################",
"########################################################################",
"########################################################################",
"########################################################################",
"########################################################################",
"########################################################################",
"########################################################################",
"########################################################################",
"#############  #########################################################",
"############# X ##################################      ################",
"############# XX ##############################   OOOOOO  ##############",
"########   # oooX ###########################  OOOOOOOOOOO #############",
"######## XX  o++o ########################## OOOOOOOOOOOOOO ############",
"##   ### XXX  +++o #######################  OOOOOOOOOOOOOOOO ###########",
"## XX    XXXX ++++o  #################    OOOOOOOOOOOOOOOOOO ###########",
"## XXXoo XXXooo+++++o    ###          OOOOOOOOOOOOOOOOOOOOOOO ##########",
"### XXoo+oXX++oo++++++++o   ooOOOOOOOOOOOOOOOOOOOOOOOOOOOOOOO ##########",
"#### XXoo+oo+++oo++++++++++ooOOOOOOOOOOOOOOOOOOOOOOOOOOO@OOOO ##########",
"##### Xooo+oo+++ooooooOoooooOOOOOOOOOOOOOOOOOOOOOOOOOOX@XXOOO ##########",
"##### oXooo+oo+++o+++oOOOOOOOOOOOOOOOOOOOOOOOOOOOOOOO@@X@@@O ###########",
"##### ooooo++oo++o++++oOOOOOOOOOOOOOOOOOOOOOOOOOOOOOOXXXXXOO ###########",
"####  oooooo+ooooo++++oOOOOOOOOOOOOOOOOOOOOOOOOOOOOO@@@X@@@ ############",
"### ooooooooOOOOOoo++++oOOOOOOOOOOOOOOOOOOOOOOO@@@@@OOX@X  #############",
"## ooooooOOOOOOOOOOOo++oOOOOOOOOOOOOOOOOOOOOO@@@@@@@@O@  ###############",
"## ooooOOOOOOOOOOOOoooooOOOOOOOOOOOOOOOOOOOO@@@@@@@@@  #################",
"## ooooOOOOOOOOOOOoooooOOOOOOOOOOOOOOOOOOOO@@@@@@@@  ###################",
"## ooooooOOOOOOOOooooOOOOOOOOOOOOOOOOOOOOO@@@@@@@  #####################",
"## OoooooOOOOOOOOooOOOOOOOOOOOOOOOOOOOOOOO@@@@@@ #######################",
"## OOOOOoOOOOOOOOOooOOOOOOOOOOOOOOOOOOOOOO@@@@. ########################",
"# OOOOOOOOOOOOOOOOOOOOOOOOOOOOOOOOOOOO@OO@@@... ########################",
"# OOOOOOOOOOOOOOOOOOOOOOOOOOOOOOOOOOO@@.... ... ########################",
"#    OOOO   ..OOOO   ..OOOO   ..OOOO    .. # .. ########################",
"##### OO ### ..OO ### ..OO ### ..OO ### .. #    ########################",
"#####   #####    #####    #####    #####   #############################"
};
