/* XPM */
static char *result[] = {
/* columns rows colors chars-per-pixel */
"72 72 8 1 ",
"  c #25131A",
". c #1F3736",
"X c #3D253B",
"o c #523B40",
"O c #5C6B53",
"+ c #895A45",
"@ c #DFBBB3",
"# c None",
/* pixels */
"########################################################################",
"########################################################################",
"########################################################################",
"########################################################################",
"########################################################################",
"########################################################################",
"########################################################################",
"########################################################################",
"########################################################################",
"########################################################################",
"########################################################################",
"########################################################################",
"########################################################################",
"########################################################################",
"########################################################################",
"########################################################################",
"########################################################################",
"########################################################################",
"########################################################################",
"########################################################################",
"########################################################################",
"########################################################################",
"########################################################################",
"########################################################################",
"########################################################################",
"########################################################################",
"########################################################################",
"########################################################################",
"########################################################################",
"########################################################################",
"########################################################################",
"########################################################################",
"######################################     #############################",
"####################################  OOOOO  ###########################",
"################################### OOOOOOOOO ##########################",
"################################## O@OOOOOOOOO #########################",
"################################# @X@X@OOOOOOOO ########################",
"################################# @XXX@OOOOOOOO ########################",
"################################# XXXXXOOOOOOOOO #######################",
"################################# XXXXXOOOOOOOOO #######################",
"################################# XXXXXOOOOOOOOO #######################",
"################################# @XXX@OOOOOOOOO #######################",
"################################# @X@X@OOOOOOOOO #######################",
"################################## O@OOOOOOOOOOO #######################",
"################################# @@@OOOOOOOOOOO #######################",
"################################ .@@@@OOOOOOOOOO #######################",
"################################ .@@@@OOOOOOOOO ##########  ############",
"################################# @@@@@OOOOOOOO ######### X ############",
"################################ @@@@@@OOOOOOOO ######## XX ############",
"################################ @@@@@@OOOOOOOOO ###### Xooo #   #######",
"################################ @@@@@@OOOOOOOOO ###### o++o  XX #######",
"############################### .@@@@@@OOOOOOOOo ##### o+++  XXX ###   #",
"############################### .@@@@@@OOOOOOOOOo ##  o++++ XXXX    XX #",
"############################## ..@@@@@OOOOOOOOOOo   o+++++oooXXX ooXXX #",
"############################## ..@@@@@OOOOOOOOOOo++++++++oo++XXo+ooXX ##",
"############################## ..@@@@@OOOOOOOOOOoo++++++oo+++oo+ooXX ###",
"###############################   @@@@OOOOOOOOOOOoooooooo+++oo+oooX ####",
"################################# @@@@OOOOOOOOOOOOOo+++o+++oo+oooXo ####",
"################################# @@@@@OOOOOOOOOOOo++++o++oo++ooooo ####",
"################################## @@@@OOOOOOOOOOOo++++ooooo+oooooo  ###",
"################################## @@@@OOOOOOOOOOo++++ooOOOOOoooooooo ##",
"################################## .@@@@OOOOOOOOOo++oOOOOOOOOOOOoooooo #",
"################################## ..@@@@OOOOOOOOoooooOOOOOOOOOOOOoooo #",
"################################## ....  OOOOOOOOOoooooOOOOOOOOOOOoooo #",
"################################## ... # .OOOOOOOOOOooooOOOOOOOOoooooo #",
"################################### .. # ..OOOOOOOOOOOooOOOOOOOOoooooO #",
"###################################   ## ... OOOOOOOOooOOOOOOOOOoOOOOO #",
"######################################## ... OOOOOOOOOOOOOOOOOOOOOOOOOO ",
"######################################## .. # OO..OOOOOOOOOOOOOOOOOOOOO ",
"#########################################  ### ....   OOOO..    OOOO    ",
"############################################## ... ### OO.. #### OO ####",
"##############################################    #####    #####   #####"
};
