/* XPM */
static char *result[] = {
/* columns rows colors chars-per-pixel */
"72 72 8 1 ",
"  c #25131A",
". c #1F3736",
"X c #3D253B",
"o c #523B40",
"O c #5C6B53",
"+ c #895A45",
"@ c #DFBBB3",
"# c None",
/* pixels */
"########################################################################",
"########################################################################",
"########################################################################",
"########################################################################",
"########################################################################",
"########################################################################",
"########################################################################",
"########################################################################",
"########################################################################",
"########################################################################",
"########################################################################",
"########################################################################",
"########################################################################",
"########################################################################",
"########################################################################",
"########################################################################",
"########################################################################",
"########################################################################",
"########################################################################",
"########################################################################",
"########################################################################",
"########################################################################",
"########################################################################",
"########################################################################",
"########################################################################",
"########################################################################",
"########################################################################",
"########################################################################",
"########################################################################",
"########################################################################",
"########################################################################",
"########################################################################",
"#######################################OOOOOOO##########################",
"######################################OOOOOOOOOO########################",
"######################################OOOOOOOOOOO#######################",
"######################################OOOOOOOOOOOOO#####################",
"#######################################OOOOOOOOOOOOOO###################",
"#######################################OOOOOOOOOOOOOOO##################",
"########################################OOOOOOOOOOOOOOOO################",
"########################################OOOOOOOOOOOOOOOOO###############",
"########################################OOOOOOOOOOOOOOOOO ##############",
"########################################OOOOOOOOOOOOOOOOOO #############",
"########################################OOOOOOOOOOOOOOOOOOO ############",
"#######################################OOOOOOOOOOOOOOOOOOOOO ###########",
"#######################################OOOOOOOOOOOOOOOOOOOOO ###########",
"######################################OOOOOOOOOOOOOOOOOOOOOOO ##########",
"#############  #######################OOOOOOOOOOOOOOOOOOOOOOO ##########",
"############# X #####################OOOOOOOOOOOOOOOOOOOOOOOO ##########",
"############# XX ###################OOOOOOOOOOOOOOOOOOOOOOOOOO #########",
"########   # oooX ################# OOOOOOOOOOOOOOOOOOOOOXX@OO #########",
"######## XX  o++o ################ OOOOOOOOOOOOOOOOOOOOOXXXXXO #########",
"##   ### XXX  +++o ############## OOOOOOOOOOOOOOO@@@@OOXXXXX@O #########",
"## XX    XXXX ++++o  ########### OOOOOOOOOOOOOOO@@@@@@XXXXXXXO #########",
"## XXXoo XXXooo+++++o    ###### OOOOOOOOOOOOOOOO@@@@@XXXXXXXX ##########",
"### XXoo+oXX++oo++++++++o  ##  OOOOOOOOOOOOOOOO@@@@@XXXXXXXX ###########",
"#### XXoo+oo+++oo++++++++++  OOOOOOOOOOOOOOOOOO@@@@@@XXXXXX ############",
"##### Xooo+oo+++ooooooOoooooOOOOOOOOOOOOOOOOOO@@@@@@XXXXXX #############",
"##### oXooo+oo+++o+++oOOOOOOOOOOOOOOOOOOOOOOOO@@@@@@@X@XX ##############",
"##### ooooo++oo++o++++oOOOOOOOOOOOOOOOOOOOOOO@@@@@@@@@@@ ###############",
"####  oooooo+ooooo++++oOOOOOOOOOOOOOOOOOOOOOO@@@@@@@@@@ ################",
"### ooooooooOOOOOoo++++oOOOOOOOOOOOOOOOOOOOO@@@@@@@@@@ #################",
"## ooooooOOOOOOOOOOOo++oOOOOOOOOOOOOOOOOOOO@@@@@@@@@@ ##################",
"## ooooOOOOOOOOOOOOoooooOOOOOOOOOOOOOOOOOO@@@@@@@@@@ ###################",
"## ooooOOOOOOOOOOOoooooOOOOOOOOOOOOOOOOOO@@@@@@@@@@ ####################",
"## ooooooOOOOOOOOooooOOOOOOOOOOOOOOOOOOO@@@@@@@@@@ #####################",
"## OoooooOOOOOOOOooOOOOOOOOOOOOOOOOOOOO@@@@@@@@@@ ######################",
"## OOOOOoOOOOOOOOOooOOOOOOOOOOOOOOOOOO@@@@@@@@@  #######################",
"# OOOOOOOOOOOOOOOOOOOOOOOOOOOOOOOOOOO@@@@@@@@  #########################",
"# OOOOOOOOOOOOOOOOOOOOOOOOOOOOOOOOOOO  ....  ###########################",
"#    OOOO   ..OOOO   ..OOOO   ..OOOO ## ... ############################",
"##### OO ### ..OO ### ..OO ### ..OO ### .. #############################",
"#####   #####    #####    #####    #####   #############################"
};
