/* XPM */
static char *result[] = {
/* columns rows colors chars-per-pixel */
"72 72 8 1 ",
"  c #25131A",
". c #1F3736",
"X c #3D253B",
"o c #523B40",
"O c #5C6B53",
"+ c #895A45",
"@ c #DFBBB3",
"# c None",
/* pixels */
"########################################################################",
"########################################################################",
"########################################################################",
"########################################################################",
"########################################################################",
"########################################################################",
"########################################################################",
"########################################################################",
"########################################################################",
"########################################################################",
"########################################################################",
"########################################################################",
"########################################################################",
"########################################################################",
"########################################################################",
"########################################################################",
"########################################################################",
"########################################################################",
"########################################################################",
"########################################################################",
"########################################################################",
"########################################################################",
"########################################################################",
"########################################################################",
"########################################################################",
"########################################################################",
"########################################################################",
"########################################################################",
"########################################################################",
"########################################################################",
"########################################################################",
"########################################################################",
"##########################OOOOOOO#######################################",
"########################OOOOOOOOOO######################################",
"#######################OOOOOOOOOOO######################################",
"#####################OOOOOOOOOOOOO######################################",
"###################OOOOOOOOOOOOOO#######################################",
"##################OOOOOOOOOOOOOOO#######################################",
"################OOOOOOOOOOOOOOOO########################################",
"###############OOOOOOOOOOOOOOOOO########################################",
"############## OOOOOOOOOOOOOOOOO########################################",
"############# OOOOOOOOOOOOOOOOOO########################################",
"############ OOOOOOOOOOOOOOOOOOO########################################",
"########### OOOOOOOOOOOOOOOOOOOOO#######################################",
"########### OOOOOOOOOOOOOOOOOOOOO#######################################",
"########## OOOOOOOOOOOOOOOOOOOOOOO######################################",
"########## OOOOOOOOOOOOOOOOOOOOOOO#######################  #############",
"########## OOOOOOOOOOOOOOOOOOOOOOOO##################### X #############",
"######### OOOOOOOOOOOOOOOOOOOOOOOOOO################### XX #############",
"######### OO@XXOOOOOOOOOOOOOOOOOOOOO ################# Xooo #   ########",
"######### OXXXXXOOOOOOOOOOOOOOOOOOOOO ################ o++o  XX ########",
"######### O@XXXXXOO@@@@OOOOOOOOOOOOOOO ############## o+++  XXX ###   ##",
"######### OXXXXXXX@@@@@@OOOOOOOOOOOOOOO ###########  o++++ XXXX    XX ##",
"########## XXXXXXXX@@@@@OOOOOOOOOOOOOOOO ######    o+++++oooXXX ooXXX ##",
"########### XXXXXXXX@@@@@OOOOOOOOOOOOOOOO  ##  o++++++++oo++XXo+ooXX ###",
"############ XXXXXX@@@@@@OOOOOOOOOOOOOOOOOO  ++++++++++oo+++oo+ooXX ####",
"############# XXXXXX@@@@@@OOOOOOOOOOOOOOOOOOoooooOoooooo+++oo+oooX #####",
"############## XX@X@@@@@@@OOOOOOOOOOOOOOOOOOOOOOOOo+++o+++oo+oooXo #####",
"############### @@@@@@@@@@@OOOOOOOOOOOOOOOOOOOOOOo++++o++oo++ooooo #####",
"################ @@@@@@@@@@OOOOOOOOOOOOOOOOOOOOOOo++++ooooo+oooooo  ####",
"################# @@@@@@@@@@OOOOOOOOOOOOOOOOOOOOo++++ooOOOOOoooooooo ###",
"################## @@@@@@@@@@OOOOOOOOOOOOOOOOOOOo++oOOOOOOOOOOOoooooo ##",
"################### @@@@@@@@@@OOOOOOOOOOOOOOOOOOoooooOOOOOOOOOOOOoooo ##",
"#################### @@@@@@@@@@OOOOOOOOOOOOOOOOOOoooooOOOOOOOOOOOoooo ##",
"##################### @@@@@@@@@@OOOOOOOOOOOOOOOOOOOooooOOOOOOOOoooooo ##",
"###################### @@@@@@@@@@OOOOOOOOOOOOOOOOOOOOooOOOOOOOOoooooO ##",
"#######################  @@@@@@@@@OOOOOOOOOOOOOOOOOOooOOOOOOOOOoOOOOO ##",
"#########################  @@@@@@@@OOOOOOOOOOOOOOOOOOOOOOOOOOOOOOOOOOO #",
"###########################  ....  OOOOOOOOOOOOOOOOOOOOOOOOOOOOOOOOOOO #",
"############################ ... ## OOOO..   OOOO..   OOOO..   OOOO    #",
"############################# .. ### OO.. ### OO.. ### OO.. ### OO #####",
"#############################   #####    #####    #####    #####   #####"
};
