/* XPM */
static char *result[] = {
/* columns rows colors chars-per-pixel */
"32 32 18 1 ",
"  c #3A3538",
". c #524031",
"X c #615338",
"o c #534F54",
"O c #756444",
"+ c #6D6970",
"@ c #806E49",
"# c #8B784E",
"$ c #937D50",
"% c #9C8454",
"& c #AC945E",
"* c #C2A86B",
"= c #CBB075",
"- c #86838C",
"; c #A09EA8",
": c #D4B980",
"> c #B9B8C4",
", c None",
/* pixels */
",,,,,,,,,,,,,,,,,,,,,,,,,,,,,,,,",
",,,,,,,,,,,,,,,,,,,,,,,,,,,,,,,,",
",,,,,,,,,,,,,,,,,,,,,,,,,,,,,,,,",
",,,,,,,,,,,,,,,,,,,,,,,,,,,,,,,,",
",OOOOXOOOXOOOXOOOXOOOXOOOXOOO.,,",
",O%%%O%%%O%%%O%%%#%%%O%%%O%%%.,,",
",O@XOXOOOX@@@X@@@X@@@X@@@X@@@.,,",
",O%.X.OOOXO@@X@@--oo@X@@@Xo@%.,,",
",O%.o.--ooOX@X@X-> +oo@X@ooX%.,,",
",O&o+.-> +ooOXooo->>;+o@o+oo&.,,",
",OOo+o.->>;+oo--+o->>>+o+oo@O.,,",
",O%.o+oo->>>-+o--+o+;+ooo--@%.,,",
",O%--oo++oooooooo-+o+oo+ >-O%.,,",
",O&-> +o-> +;-++ooooo+;>>--+&.,,",
",OO.->>;+-;>>>>>;-+o->>>-o+-O.,,",
",O%.o->>>+--;;;;;;;->>;oo--.%.,,",
",O&o+o+;>>;+oo+o+--++oo+ ;-.&.,,",
",O=o++oo++-;-+oo-+ooo+;>>-..&.,,",
",O:::O::=O:==O::=#:==O::=O::=.,,",
",X%%$.%%$.%%$.%%$.%%$.%%$.%%$.,,",
",X:::=============*===*=*=***.,,",
",X%O%%%%%%%%%%%%%%%%%%%%$%$O$.,,",
",X%$$$$O$$$O$$$O##$O###O#$#$#.,,",
",X$O$$#$#$##$##############O#.,,",
",.XXX.XXX.XXX.XXX.XXX.XXX.XXX.,,",
",X###X###X###X###X###X###X###.,,",
",X%%$X%%$X%%%X%%$X%%%X%%$X%%$.,,",
",X:::=============*===*=*=***.,,",
",X%O%%%%%%%%%%%%%%%%%%%%$%$O$.,,",
",X%$$$$O$$$O$$$O##$O###O#$#$#.,,",
",X$O$$#$#$##$##############O#.,,",
",XXXX.XXX.XXX.XXX.XXX.XXX.XXX.,,"
};
