/* XPM */
static char *result[] = {
/* columns rows colors chars-per-pixel */
"32 32 34 1 ",
"  c #392B0C",
". c #126800",
"X c #544110",
"o c #634B12",
"O c #624C12",
"+ c #735813",
"@ c #735913",
"# c #800000",
"$ c #B50000",
"% c #803A00",
"& c #DF0000",
"* c red",
"= c #805500",
"- c #B55200",
"; c #836516",
": c #937218",
"> c #A77F0C",
", c #B57900",
"< c #DF6500",
"1 c #FF7300",
"2 c #FF4142",
"3 c #368700",
"4 c #A5801B",
"5 c #B58C1C",
"6 c #DF9500",
"7 c #C3971E",
"8 c #FFAA00",
"9 c #FF9641",
"0 c #D3AE48",
"q c #FFBF41",
"w c #FFB67E",
"e c #FFD27E",
"r c #FF7E80",
"t c None",
/* pixels */
"tttttttttttttttttttttttttttttttt",
"tttttttttttttttttttttttttttttttt",
"tttttttttttt@@@@@@@@tttttttttttt",
"ttttttttt@@;:>77775:@OOttttttttt",
"ttttttt@@:75:;;;;;:>37:OOttttttt",
"tttttt@:75--%O+:431-.;>5:Otttttt",
"ttttt@:03.99-%;+,.=9<-@;3:Ottttt",
"tttt@:7;+1w1<%O6eq6=<%*$.>:Otttt",
"tttt@5;+O-931-%8q86=3*r2&$>Otttt",
"ttt@>:@,,=$.#-%3q8,-.%2*&#>:Ottt",
"ttt@73.qq*r2&#-.%61w9<%&$#;>Ottt",
"ttt@0;6e83r**1w9<%131<%#3:;7Ottt",
"ttt@0;,q,.=2*1w11%$.#-8,.+;7Ottt",
"ttt@7:@6eq6=&-991*r2&#eq6,5>Ottt",
"tttO:0;,e88=$$#9<32*&#q8,;7:Ottt",
"tttO;>0;,63.22$#,.=*$#6,;5:;Ottt",
"ttttO:>7;O6*r*&8eq6=#,@;0:;Otttt",
"ttttOO:>75;@$$&6q86=@;>0:;OOtttt",
"ttttO;@;:>77:;;;;;;:>77:;O+Otttt",
"tttt@O:@@;:>5700775>>:;@O+OOtttt",
"tttt@;O>5;@;;::::::;;@@;+O+Otttt",
"tttt@O:+;77;@@OOOOOO@;;OO+OOtttt",
"tttt@;O>5;;55++::OO:;OO;+O+Otttt",
"tttt@O:+;77;+>4++::OO;;OO+OOtttt",
"ttttt@O>5;;55++::OO:;OO;+OO tttt",
"tttttO;++55;+>>++::OO;;OO+Ottttt",
"ttttttO;:++>>++::OO:;OO;+Otttttt",
"tttttttO+;;++>>++::OO++OOttttttt",
"ttttttttOO+;;++::OO;+OOOtttttttt",
"ttttttttttOOO;;OO++OOOtttttttttt",
"ttttttttttttoOOOOOOXtttttttttttt",
"tttttttttttttttttttttttttttttttt"
};
