/* XPM */
static char *result[] = {
/* columns rows colors chars-per-pixel */
"32 32 24 1 ",
"  c #392B0C",
". c #285E00",
"X c #327300",
"o c #544110",
"O c #634B12",
"+ c #624C12",
"@ c #735813",
"# c #735913",
"$ c #933C1F",
"% c #836516",
"& c #937218",
"* c #A77F0C",
"= c #B44D28",
"- c #D1561A",
"; c #EC5D0C",
": c #EF7D0C",
"> c #589B05",
", c #A5801B",
"< c #B58C1C",
"1 c #C3971E",
"2 c #F19B0C",
"3 c #E2C20B",
"4 c #D3AE48",
"5 c None",
/* pixels */
"55555555555555555555555555555555",
"55555555555555555555555555555555",
"555555555555########555555555555",
"555555555##%&*1111<&#++555555555",
"5555555##&1<&%%%%%&*11&++5555555",
"555555#&1<%%#+@;:;=#%%*<&+555555",
"55555#&4%#@++%;>X2:=@,#%<&+55555",
"5555#&1%@;:;=+;232:;=;:;=*&+5555",
"5555#<%@;23>:;:;=::-;2>X:=*+5555",
"555#*&#$-22X;2>X:=;-=232:-*&+555",
"555#1%+=-:2:-232:;-:;=2:;-%*+555",
"555#4%=-;=;-=:2::-23>X=--=%1+555",
"555#4%->X:=$$;:;--222:;=$$%1+555",
"555#1&-32;-===;:;=:2::;.=$<*+555",
"555+&4%-;--:;-2>X:-;;-=-=%1&+555",
"555+%*4%=$:22-232;$$==--%<&%+555",
"5555+&*1%+.X:-:2:-=-;=#%4&%+5555",
"5555++&*1<%#;-=;-=-;#%*4&%++5555",
"5555+%#%&*11&%%%%%%&*11&%+@+5555",
"5555#+&##%&*<14411<**&%#+@++5555",
"5555#%+*<%#%%&&&&&&%%##%@+@+5555",
"5555#+&@%11%##++++++#%%++@++5555",
"5555#%+*<%%<<@@&&++&%++%@+@+5555",
"5555#+&@%11%@*,@@&&++%%++@++5555",
"55555#+*<%%<<@@&&++&%++%@++ 5555",
"55555+%@@<<%@**@@&&++%%++@+55555",
"555555+%&@@**@@&&++&%++%@+555555",
"5555555+@%%@@**@@&&++@@++5555555",
"55555555++@%%@@&&++%@+++55555555",
"5555555555+++%%++@@+++5555555555",
"555555555555O++++++o555555555555",
"55555555555555555555555555555555"
};
