/* XPM */
static char *result[] = {
/* columns rows colors chars-per-pixel */
"32 32 14 1 ",
"  c #333133",
". c #333234",
"X c #59473A",
"o c #695437",
"O c #7B6334",
"+ c #8C8140",
"@ c #96865D",
"# c #B2A45B",
"$ c #B5A270",
"% c #C7AD79",
"& c #D4B980",
"* c #E0C389",
"= c #F0D192",
"- c None",
/* pixels */
"----------------------------$$$$",
"--------------------------%%&&&%",
"------------------------%@@*%%%&",
"-----------------------%=*@$**%%",
"----------------------%=%%=@%%**",
"---------------------%=%&=&%$*%%",
"---------------------%=&=&==&%==",
"--------------------.$=&=&=*%=*%",
"--------------------.$&=&$@$*&%=",
"--------------------X+$&@@==&==&",
"-------------------.X++o@=&&=&&=",
"-------------------.O+OoO#==&==&",
"------------------.XO+oo+###@%%=",
"----------------..XO++oO+#+oO**%",
"--------------...XO++OX+##+oo+#+",
"-------------...XO+#OoX+##Ooo+#+",
"------------- .XO+##OoX##+Ooo+#+",
"-------------.oO+##OoXO##+OoO#++",
"-----------.X++o++OoXo+##+oXO##+",
"---------.XO+##+oOoXX+##+OoX+##+",
"--------.oO+##+OXo.XOO+#+oXo++Oo",
"---------..oooOOX.XO+#OoXXXO##+O",
"------------- ...Xo##++OoXo+###+",
"----------------.O+##+OoX.O###++",
"----------------O+##+OooX.++++OO",
"---------------.+##+#+OX.OoX##+O",
"----------------..OOoXX..oX+#+oX",
"----------------- .....  .Xo+OOo",
"-------------------------- .XXX.",
"-----------------------------  -",
"--------------------------------",
"--------------------------------"
};
