/* XPM */
static char *result[] = {
/* columns rows colors chars-per-pixel */
"32 32 17 1 ",
"  c #333133",
". c #323234",
"X c #333234",
"o c #59473A",
"O c #695437",
"+ c #7B6334",
"@ c #433F40",
"# c #8C8140",
"$ c #96865D",
"% c #B2A45B",
"& c #B5A270",
"* c #C9A65F",
"= c #C7AD79",
"- c #D4B980",
"; c #E0C389",
": c #F0D192",
"> c None",
/* pixels */
"&$$$$>>>>>>>>>>>>>>>>>>>>>>>>>>>",
"=&&**&$$>>>>>>>>>>>>>>>>>>>>>>>>",
"---&&&**&$>>>>>>>>>>>>>>>>>>>>>>",
"=&&---&&$$$>>>>>>>>>>>>>>>>>>>>>",
"--*=&&$$&-*$>>>>>>>>>>>>>>>>>>>>",
"&&&--*=&$$$$X>>>>>>>>>>>>>>>>>>>",
"-==&--&-*&-&@X>>>>>>>>>>>>>>>>>>",
"=:;-=&-&&--$@X>>>>>>>>>>>>>>>>>>",
"&=&&;&=---&$oX>>>>>>>>>>>>>>>>>>",
"=$;;==&&&&$oo@X>>>>>>>>>>>>>>>>>",
";$&==-=$$OOoo@X>>>>>>>>>>>>>>>>>",
"-&$-;=&O++ooooXX>>>>>>>>>>>>>>>>",
":-$&=&#+O+oooooXX>>>>>>>>>>>>>>>",
"&$OO###+o+OooooXXXX>>>>>>>>>>>>>",
"#OOO+%#+OOOoOoooXXXX>>>>>>>>>>>>",
"OOoO+###oOOo+OoooXXXX >>>>>>>>>>",
"OOoOO#%#oOOO++OoooXX >>>>>>>>>>>",
"OoooO+#+ooOoO++OoooX>>>>>>>>>>>>",
"+OoooOoOOooooO++OoooX>>>>>>>>>>>",
"+OOoooO++OooOooOOOoooXX>>>>>>>>>",
"oOOOoO+#++OXOOOoXOOooooX>>>>>>>>",
"Oooooo+%#+OXoO+OoXXoooooX >>>>>>",
"+OOoXoO#%#+oXO+++OoXXooX>>>>>>>>",
"#+OOXoO+##OOXoO++OXX. >>>>>>>>>>",
"++OOXooOOo++oXXXXX >>>>>>>>>>>>>",
"OOOoXXOOoO%#OX. >>>>>>>>>>>>>>>>",
"OooX  XOo+#+OoX>>>>>>>>>>>>>>>>>",
"ooX >> XXo+OOoX>>>>>>>>>>>>>>>>>",
"XX >>>>>> XXXX >>>>>>>>>>>>>>>>>",
">>>>>>>>>>>>>>>>>>>>>>>>>>>>>>>>",
">>>>>>>>>>>>>>>>>>>>>>>>>>>>>>>>",
">>>>>>>>>>>>>>>>>>>>>>>>>>>>>>>>"
};
