/* XPM */
static char *result[] = {
/* columns rows colors chars-per-pixel */
"32 32 8 1 ",
"  c #496F46",
". c #3D960E",
"X c #49AD0F",
"o c #44822B",
"O c #65C528",
"+ c #73D336",
"@ c #80DF42",
"# c None",
/* pixels */
"##########################oo..oo",
"#######################..O.XOXXO",
"#####################..XOXO++OOX",
"###################.oX@X@O+@@+@O",
"################...oXOX+O+@@@@++",
"###############.XXo.OX+OO++@@+@+",
"#############..XOXXX.O@+O+@@@@+@",
"############.XO+O.XXX@+OXO++@@@+",
"###########.X@@OXX.XO+@+OXOX+@++",
"###########.+@+OXOXO+@@+O.XO++O+",
"##########.X@+@XOXXO@@@@OXO++OOO",
"##########.X+OOXXOXO@@@@+O@+@++O",
"#########o.oOOXXOOO+O@+@@++@++OO",
"#########ooXXXOOXO@+XO@++OO++OXO",
"#########o..XO+O.++@OXOOXO++++OX",
"########o.XXO+@O.+@@@OXXO++@+O+O",
"########.XXOO@+OXO@@+OOO++@+@+++",
"########.XOX+@@+OXO@@OXO+@+@@@@@",
"#######.XXOO@@@@+OX+@+OXO+@@@@@+",
"######.XX.XO@@+OOXO++++X.OO+@@+@",
"#####.X+X.XXO@+OX.XO@+@OXXOOXOOX",
"#####.OOXX.XXO+XOXXO+@@@+OX.XXXX",
"####oX+O.XX..XOO+OOXO+@+@@+OXOXO",
"####oX+X.X.XXO++OOXXOO+@+OXXO++O",
"####oXOXXX.XO+@@+OOXXOOOXOO++@@+",
"####oXX.XO.XO@@@@@+OOXOOOO@@++@@",
"###.O.X..OXXO+@@@+@+OOOOO+@@@+@+",
"###.O...XOO.X++@+@OXOOXO+@+@+O+@",
"###.OXo.O+OOXO+++OXO+OOOO++++O+O",
"###.XXoX+@+OOXOOXOO+@++OOXOOOOOO",
"##o XX.O@@@+OO+OXX+@+@@+OOXOXOOX",
"##o .XXO@@@++O++X.+@@@+@+OOXXXXX"
};
