/* XPM */
static char *result[] = {
/* columns rows colors chars-per-pixel */
"32 32 15 1 ",
"  c #323234",
". c #333234",
"X c #59473A",
"o c #7B6334",
"O c #454F4B",
"+ c #496F46",
"@ c #3D960E",
"# c #49AD0F",
"$ c #44822B",
"% c #65C528",
"& c #73D336",
"* c #8C8140",
"= c #B2A45B",
"- c #80DF42",
"; c None",
/* pixels */
";;$+@%##%-&-&%&%%#%&-&-&&&%%##@@",
";;$@$%##%&-&-&%&&%#%&%&-&%#%%#%#",
";;$@$##@#%&&%#&-&#%#@#%&%#&&&%&&",
";;$@$#%@##%%#%--%&&-&%##@#%---&%",
";;+$@@#@@##%%&-&&&---&%%#%%%-&&%",
";;+$@+@#@@###%&&&----&%&%###%%%@",
";;;+$@$@##%#%#%&%-&-&%&-&%#%##@#",
";;;O+$+@@#%%%%#%%%&&%&-&&&%%&%&%",
";;;;OO$$@@#%%###%#%#%&&%&%#&&&%&",
";;;;;++$@@@###@#@##%#%%%%%%%&%&-",
";;;;;;O+$@$$$#@@$@####%##%#%%%%&",
";;;;;;;O+$@@$$@@$@@#@##@##@#%#%%",
";;;;;;;OO+$@+@$$$$@@@@@#@$@@###%",
";;;;;;;;OOO$@@@@@$$$$@@@$@@$@$%#",
";;;;;;;;;O++$$$@@$$++$$$@@#@@$@@",
";;;;;;;;;O+O++$$$+$$+$@@##@@$@@@",
";;;;;;;;;;O$$$+OOO+$$$$@@@$$$$@@",
";;;;;;;;;;;;+$$$$+++$+$$$$++$$$$",
";;;;;;;;;;;;;+O$$$$$$+$++OO+++$$",
";;;;;;;;;;;;;;+OO+$$$+++$$+O+$$$",
";;;;;;;;;;;;;;;;;+OO+O+O++OOO++$",
";;;;;;;;;;;;;;;;;;;;OOOOOOOO OOO",
";;;;;;;;;;;;;;;;;;;;;;;;;;;;.XXX",
";;;;;;;;;;;;;;;;;;;;;;;;;;;;.XXX",
";;;;;;;;;;;;;;;;;;;;;;;;;;...o**",
";;;;;;;;;;;;;;;;;;;;;;;;;.X*o*=*",
";;;;;;;;;;;;;;;;;;;;;;;;;;.X*==*",
";;;;;;;;;;;;;;;;;;;;;;;;;.o*==*=",
";;;;;;;;;;;;;;;;;;;;;;;;;;.oo*o=",
";;;;;;;;;;;;;;;;;;;;;;;;;;;...Xo",
";;;;;;;;;;;;;;;;;;;;;;;;;;;;;;..",
";;;;;;;;;;;;;;;;;;;;;;;;;;;;;;;;"
};
