/* XPM */
static char *result[] = {
/* columns rows colors chars-per-pixel */
"32 32 9 1 ",
"  c #454F4B",
". c #496F46",
"X c #3D960E",
"o c #49AD0F",
"O c #44822B",
"+ c #65C528",
"@ c #73D336",
"# c #80DF42",
"$ c None",
/* pixels */
"O.. $$$$$$$$$$$$$$$$$$$$$$$$$$$$",
"ooXXO.. $$$$$$$$$$$$$$$$$$$$$$$$",
"+oooXOOO. $$$$$$$$$$$$$$$$$$$$$$",
"++oooXO...  $$$$$$$$$$$$$$$$$$$$",
"+@+o+oXOXX.    $$$$$$$$$$$$$$$$$",
"#+o+ooXOXXX. OO.$$$$$$$$$$$$$$$$",
"@@@+ooXXoooX. OO. $$$$$$$$$$$$$$",
"@@+++oXo++ooX..XXO.$$$$$$$$$$$$$",
"@++++ooo+++oXX..OXO.$$$$$$$$$$$$",
"+@++oXooo+o+oXO .O..$$$$$$$$$$$$",
"+++ooo++oo+ooX.XOXO. $$$$$$$$$$$",
"+oo+o+@+o+ooXOXXOXXOO $$$$$$$$$$",
"+++@@@+@+ooXXXOX.XXXO  $$$$$$$$$",
"++o++@@+ooXOXXXOOOXXO. $$$$$$$$$",
"o+ooX+oo+oooXoXOXOXXX.  $$$$$$$$",
"+o+ooo++oo++oXoXXXO.OO.  $$$$$$$",
"++oXo+o@@++oooXXXoXO.O . $$$$$$$",
"@++ooo@#++oXoXOXoooXO. O.$$$$$$$",
"#+ooXoo++oXoXOOoooooXO.XO.$$$$$$",
"++ooOXooXXXXXOXooooXXOOOX. $$$$$",
"+ooXOOXXoXoooXOXooooXOOOXO $$$$$",
"ooXXoXOoooo+oooXXoXoXO.OXX. $$$$",
"oooooXoooo++@+ooXXoXXO..OO. $$$$",
"++o++++o+++#+@+ooXXXXO ..O. $$$$",
"@++o++o+o+@@#++o+oOXO. .O.. $$$$",
"#++++++o+@@#@+o+ooOOOO....  $$$$",
"#@++o+oo++o+oo++oXXOXO. ..  $$$$",
"@+o+o+oooo+oo++oXXOOXO..  . $$$$",
"+++oXooXoooo+ooXoOXXX OO..   $$$",
"o+oXooXOXooXoXXoOXOXO.OOO. . $$$",
"ooXoXXO.OXXXXXOXOOXO.OXOO O.. $$",
"ooooXOXXXooOOOXOOXOOOXoOO.O.. $$"
};
