/* XPM */
static char *result[] = {
/* columns rows colors chars-per-pixel */
"32 32 39 1 ",
"  c #2E2C2E",
". c #303031",
"X c #333133",
"o c #333234",
"O c #4C5238",
"+ c #566033",
"@ c #565253",
"# c #656D40",
"$ c #7A7A46",
"% c #73645C",
"& c #8C7761",
"* c #6C8126",
"= c #73882D",
"- c #7C8E30",
"; c #859331",
": c #8C9A32",
"> c #84A02A",
", c #8CA82F",
"< c #91B02D",
"1 c #8EA034",
"2 c #94AE33",
"3 c #96A639",
"4 c #9DB235",
"5 c #A4B936",
"6 c #A2BC36",
"7 c #A7C038",
"8 c #A9C138",
"9 c #AEC53D",
"0 c #B2C839",
"q c #B4CF3B",
"w c #BBD43F",
"e c #9C944D",
"r c #A08F57",
"t c #A6A05B",
"y c #AEAD5A",
"u c #A98C66",
"i c #B0A16C",
"p c #C6B47A",
"a c None",
/* pixels */
"aaaaaaaaaaaaaaaaaaaaaaaaaaaaaaaa",
"aaaaaaaaaaaaaaaaaaaaaaaaaaaaaaaa",
"aaaaaaaaaaaaaaaaaaaaaaaaaaaaaaaa",
"aaaaaaaaaaaaaaaaaaaaaaaaaaaaa&pu",
"aaaaaaaaaaaaaaaaaaaaaaaaaaaa&p&%",
"aaaaaaaaaaaaaaaaaaaaaaaaaaa;qpoo",
"aaaaaaaaaaaaaaaaaaaaaaaaaa;q9ipi",
"aaaaaaaa*****************;9w;%@@",
"aaaaaaa;20q0q0qqqq00666<wwq4-$@+",
"aaaaaa;9qwwwwwwwqwqq06<qw75--=+=",
"aaaaa;9q><-33311175555225522=*==",
"aaaaa;t<*<*2008080888888622,>,--",
"aaaa&3o>*>+<9399wwwwwqwq08885779",
"aaaa&to>O*o<-3333333999999777777",
"aaa@p%o*o+o>+377qqqqqq7777777755",
"aaa@i%@#ooo>o1;444888444444444;;",
"aaaX@oooooo*o+:13399999793131131",
"aaa&p%%@@@o+oipy333111111111::eu",
"aaa@i%%%@oooopiiiuee:::::::eruuu",
"aaa@ooooooooopi&&&&&&&&&&&&&&&&&",
"aaa&i@@@ooooo&%@@@@%@%@%%&&&&&&&",
"aaaop%%%%@@oop&uuuu&&u&&&&&%%%%%",
"aaaa%i%@@ooo%iu&&&%%%%%%%%%%%%%%",
"aaaaouoooooopu&%%%%%%%%%%%%@@@@@",
"aaaaaop%%@oo@@%%@@@@@@@@@@@@@@@@",
"aaaaaoui@o%i%@@@@@%@%@@%@%%%%@@@",
"aaaaaaoupii%@@@@@@@@@@@@@ooooooo",
"aaaaaaaoooooooooooooooooo..  aaa",
"aaaaaaaaaaaXXXXXXXXaaaaaaaaaaaaa",
"aaaaaaaaaaaaaaaaaaaaaaaaaaaaaaaa",
"aaaaaaaaaaaaaaaaaaaaaaaaaaaaaaaa",
"aaaaaaaaaaaaaaaaaaaaaaaaaaaaaaaa"
};
