/* XPM */
static char *result[] = {
/* columns rows colors chars-per-pixel */
"32 32 33 1 ",
"  c #2C2B2C",
". c #2D2D2D",
"X c #2E2D2E",
"o c #2E2E30",
"O c #312F31",
"+ c #333133",
"@ c #333234",
"# c #566033",
"$ c #565253",
"% c #656D40",
"& c #7A7A46",
"* c #73645C",
"= c #8C7761",
"- c #6C8126",
"; c #73882D",
": c #7C8E30",
"> c #859331",
", c #8C9A32",
"< c #8EA034",
"1 c #94AE33",
"2 c #9DB235",
"3 c #A4B936",
"4 c #A2BC36",
"5 c #A7C038",
"6 c #A9C138",
"7 c #B2C839",
"8 c #898549",
"9 c #9C944D",
"0 c #A0A151",
"q c #A6A05B",
"w c #A98C66",
"e c #B0A16C",
"r c None",
/* pixels */
"rrrrrrrrrrrrrrrrrrrrrrrrrrrrrrrr",
"rrrrrrrrrrrrrrrrrrrrrrrrrrrrrrrr",
"rrrrrrrrrrrrrrrrrrrrrrrrrrrrrrrr",
"@rrrrrrrrrrrrrrrrrrrrrrrrrrrrrrr",
"w@rrrrrrrrrrrrrrrrrrrrrrrrrrrrrr",
"=@rrrrrrrrrrrrrrrrrrrrrrrrrrrrrr",
"*@rrrrrrrrrrrrrrrrrrrrrrrrrrrrrr",
"@rrrrrrrrrrrrrrrrrrrrrrrrrrrrrrr",
"-------------------#@@@@rrrrrrrr",
";;::11444444411111:;;%%$@@rrrrrr",
"::122232377776767211:::;%$@rrrrr",
"1222222222221221212222:>::%@rrrr",
"55555555355535332>::::;:;--@rrrr",
"533333333332332332323222>::$@rrr",
"333,>>>>>>>>222222222>>>>>&$@rrr",
">>>>>8&88&>:>>::>::::::&$$$@@+rr",
"0qqeeweewwe9,<,,,,,,>9=====*$@rr",
"wwwwwwwwwwww=ww=w=w========*$@rr",
"==================****$$$$$@@+rr",
"======$**$**$*$$$$$$$$$$$$$$$@rr",
"=*****=========**=*=*******$@+rr",
"*************************$$$@rrr",
"****************$$$$$$$$$$$@rrrr",
"$$$$$$$$$$$$$$$$$$$$$$$$$@@rrrrr",
"$***$$*$*$*$$$$$$$$$@@@@@Orrrrrr",
"$$$$$$$$@@@@@@@@@@@@OXrrrrrrrrrr",
"@@@@@@@@oo  .rrrrrrrrrrrrrrrrrrr",
"rrrrrrrrrrrrrrrrrrrrrrrrrrrrrrrr",
"rrrrrrrrrrrrrrrrrrrrrrrrrrrrrrrr",
"rrrrrrrrrrrrrrrrrrrrrrrrrrrrrrrr",
"rrrrrrrrrrrrrrrrrrrrrrrrrrrrrrrr",
"rrrrrrrrrrrrrrrrrrrrrrrrrrrrrrrr"
};
