/* XPM */
static char *result[] = {
/* columns rows colors chars-per-pixel */
"32 32 14 1 ",
"  c #333234",
". c #59473A",
"X c #7B6334",
"o c #454F4B",
"O c #496F46",
"+ c #3D960E",
"@ c #49AD0F",
"# c #44822B",
"$ c #65C528",
"% c #73D336",
"& c #8C8140",
"* c #B2A45B",
"= c #80DF42",
"- c None",
/* pixels */
"@@@$@$@@+$$@####+#O#+@++#O#OOo--",
"@$$$$@$@$$$$+O##O#++@@++O#O#Oo--",
"$%==$$@@@$@@+#OoO++@+++OO#O#Oo--",
"%=%==%$@+@++#OoO#@@+@+#O##O#Oo--",
"$%=%$$@@+++#OO#O#+@@++##+#OoOo--",
"+@$$$@+####++###+++++##++OOOo---",
"$$$$@$@@#O+@@@@++####O+###OOo---",
"$%=%$@@@@#+@$$@@@+#OO###OOOo----",
"%%=%=$@$@+@$=%@$@#+#oOOOOOoo----",
"=%%%%%$@$+$=%$@@++##OO#OoOo-----",
"%$%$$$@$++@+$@+++##OOoOOoo------",
"$@$@@@@++++@@+###+O#ooOooo------",
"@$@+@@+++#+++###+##Oooooo-------",
"@@@+++@+O#O##+#OOOOOoOo---------",
"@++++##O#OoOO##OOOOoOo----------",
"+#+##OO##+#OOooOoOOOOo----------",
"####O##++###OOooOOOOo-----------",
"OOooOO#####OOOOoOOoo------------",
"##O##OOO##OOoOOooo--------------",
"##OO##OoOOOOooo-----------------",
"#O##OOOooOOoo-------------------",
"OOOOoOoooo----------------------",
"... ----------------------------",
"... ----------------------------",
"X..   --------------------------",
"&X.... -------------------------",
"&X&X. --------------------------",
"&XX*&. -------------------------",
"XX... --------------------------",
"X.   ---------------------------",
"  ------------------------------",
"--------------------------------"
};
