/* XPM */
static char *result[] = {
/* columns rows colors chars-per-pixel */
"72 72 8 1 ",
"  c #25131A",
". c #1F3736",
"X c #3D253B",
"o c #523B40",
"O c #5C6B53",
"+ c #895A45",
"@ c #DFBBB3",
"# c None",
/* pixels */
"########################################################################",
"########################################################################",
"########################################################################",
"########################################################################",
"########################################################################",
"########################################################################",
"########################################################################",
"########################################################################",
"########################################################################",
"########################################################################",
"########################################################################",
"########################################################################",
"########################################################################",
"########################################################################",
"########################################################################",
"########################################################################",
"########################################################################",
"########################################################################",
"########################################################################",
"########################################################################",
"########################################################################",
"########################################################################",
"########################################################################",
"########################################################################",
"########################################################################",
"########################################################################",
"########################################################################",
"########################################################################",
"########################################################################",
"########################################################################",
"########################################################################",
"########################################################################",
"########################################################################",
"########################################################################",
"########################################################################",
"########################################################################",
"########################################################################",
"##################################     #################################",
"################################  OOOOO  ###############################",
"############################### OOOOOOOOO ##############################",
"############################## OOOOOOOOOOO #############################",
"############################# OOOOOOOOOO@OO ############################",
"############################# OOOOOOOO@X@X@ ############################",
"############################ OOOOOOOOO@XXX@ ############################",
"############################ OOOOOOOOOXXXXX ############################",
"############################ OOOOOOOOO@XXX@ ############################",
"#############  ############# OOOOOOOOO@X@X@ ############################",
"############# X ############ OOOOOOOOOOO@O #############################",
"############# XX ########### OOOOOOOOOOOOO #############################",
"########   # oooX ########### OOOOOOOOOO@@@ ############################",
"######## XX  o++o ########### OOOOOOOOO@@@@ ############################",
"##   ### XXX  +++o ########## OOOOOOOOO@@@@ ############################",
"## XX    XXXX ++++o  ######## OOOOOOOO@@@@@ ############################",
"## XXXoo XXXooo+++++o    ###  OOOOOOOO@@@@@@ ###########################",
"### XXoo+oXX++oo++++++++o   oOOOOOOOOO@@@@@@ ###########################",
"#### XXoo+oo+++oo++++++++++ooOOOOOOOOO@@@@@@ ###########################",
"##### Xooo+oo+++ooooooOoooooOOOOOOOOOO@@@@@@. ##########################",
"##### oXooo+oo+++o+++oOOOOOOOOOOOOOOOOO@@@@@. ##########################",
"##### ooooo++oo++o++++oOOOOOOOOOOOOOOOO@@@@@. ##########################",
"####  oooooo+ooooo++++oOOOOOOOOOOOOOOOO@@@@@. ##########################",
"### ooooooooOOOOOoo++++oOOOOOOOOOOOOOOO@@@@@. ##########################",
"## ooooooOOOOOOOOOOOo++oOOOOOOOOOOOOOOO@@@@  ###########################",
"## ooooOOOOOOOOOOOOoooooOOOOOOOOOOOOOOO@@@@ ############################",
"## ooooOOOOOOOOOOOoooooOOOOOOOOOOOOOOOO@@@@ ############################",
"## ooooooOOOOOOOOooooOOOOOOOOOOOOOOOOOO@@@@ ############################",
"## OoooooOOOOOOOOooOOOOOOOOOOOOOOOOOOO@@@@@ ############################",
"## OOOOOoOOOOOOOOOooOOOOOOOOOOOOOOOOOO@@@@. ############################",
"# OOOOOOOOOOOOOOOOOOOOOOOOOOOOOOOOOOO@@@@.. ############################",
"# OOOOOOOOOOOOOOOOOOOOOOOOOOOOOOOOOOO  .... ############################",
"# O  OOOO   ..OOOO   ..OOOO   ..OOOO ## ... ############################",
"#  ## OO ### ..OO ### ..OO ### ..OO ### .. #############################",
"#####   #####    #####    #####    #####   #############################"
};
