/* XPM */
static char *result[] = {
/* columns rows colors chars-per-pixel */
"72 72 8 1 ",
"  c #25131A",
". c #1F3736",
"X c #3D253B",
"o c #523B40",
"O c #5C6B53",
"+ c #895A45",
"@ c #DFBBB3",
"# c None",
/* pixels */
"########################################################################",
"########################################################################",
"########################################################################",
"########################################################################",
"########################################################################",
"########################################################################",
"########################################################################",
"########################################################################",
"########################################################################",
"########################################################################",
"########################################################################",
"########################################################################",
"########################################################################",
"########################################################################",
"########################################################################",
"########################################################################",
"########################################################################",
"########################################################################",
"########################################################################",
"########################################################################",
"########################################################################",
"########################################################################",
"########################################################################",
"########################################################################",
"########################################################################",
"########################################################################",
"########################################################################",
"########################################################################",
"########################################################################",
"########################################################################",
"########################################################################",
"########################################################################",
"########################################################################",
"########################################################################",
"########################################################################",
"########################################################################",
"########################################################################",
"################################     ###################################",
"##############################  OOOOO  #################################",
"############################# OOOOOOOOO ################################",
"############################ OOOOOOOOOOO ###############################",
"########################### OO@OOOOOOOOOO ##############################",
"########################### @X@X@OOOOOOOO ##############################",
"########################### @XXX@OOOOOOOOO #############################",
"########################### XXXXXOOOOOOOOO #############################",
"########################### @XXX@OOOOOOOOO #############################",
"########################### @X@X@OOOOOOOOO ##############  #############",
"############################ O@OOOOOOOOOOO ############# X #############",
"############################ OOOOOOOOOOOOO ############ XX #############",
"########################### @@@OOOOOOOOOOO ########### Xooo #   ########",
"########################## .@@@@OOOOOOOOOO ########### o++o  XX ########",
"########################## .@@@@OOOOOOOOO ########### o+++  XXX ###   ##",
"########################### @@@@@OOOOOOOO #########  o++++ XXXX    XX ##",
"########################## @@@@@@OOOOOOOO   ###    o+++++oooXXX ooXXX ##",
"########################## @@@@@@OOOOOOOOOoo   o++++++++oo++XXo+ooXX ###",
"########################## @@@@@@OOOOOOOOOOoo++++++++++oo+++oo+ooXX ####",
"######################### .@@@@@@OOOOOOOOOOOoooooOoooooo+++oo+oooX #####",
"######################### .@@@@@@OOOOOOOOOOOOOOOOOo+++o+++oo+oooXo #####",
"######################## ..@@@@@OOOOOOOOOOOOOOOOOo++++o++oo++ooooo #####",
"######################## ..@@@@@OOOOOOOOOOOOOOOOOo++++ooooo+oooooo  ####",
"######################## ..@@@@@OOOOOOOOOOOOOOOOo++++ooOOOOOoooooooo ###",
"#########################   @@@@OOOOOOOOOOOOOOOOo++oOOOOOOOOOOOoooooo ##",
"########################### @@@@OOOOOOOOOOOOOOOOoooooOOOOOOOOOOOOoooo ##",
"########################### @@@@@OOOOOOOOOOOOOOOOoooooOOOOOOOOOOOoooo ##",
"############################ @@@@OOOOOOOOOOOOOOOOOOooooOOOOOOOOoooooo ##",
"############################ @@@@OOOOOOOOOOOOOOOOOOOOooOOOOOOOOoooooO ##",
"############################ .@@@@OOOOOOOOOOOOOOOOOOooOOOOOOOOOoOOOOO ##",
"############################ ..@@@@OOOOOOOOOOOOOOOOOOOOOOOOOOOOOOOOOOO #",
"############################ ....  OOOOOOOOOOOOOOOOOOOOOOOOOOOOOOOOOOO #",
"############################ ... ## OOOO..   OOOO..   OOOO..   OOOO    #",
"############################# .. ### OO.. ### OO.. ### OO.. ### OO #####",
"#############################   #####    #####    #####    #####   #####"
};
