/* XPM */
static char *result[] = {
/* columns rows colors chars-per-pixel */
"72 72 8 1 ",
"  c #25131A",
". c #1F3736",
"X c #3D253B",
"o c #523B40",
"O c #5C6B53",
"+ c #895A45",
"@ c #DFBBB3",
"# c None",
/* pixels */
"########################################################################",
"########################################################################",
"########################################################################",
"########################################################################",
"########################################################################",
"########################################################################",
"########################################################################",
"########################################################################",
"########################################################################",
"########################################################################",
"########################################################################",
"########################################################################",
"########################################################################",
"########################################################################",
"########################################################################",
"########################################################################",
"########################################################################",
"########################################################################",
"########################################################################",
"########################################################################",
"########################################################################",
"########################################################################",
"########################################################################",
"########################################################################",
"########################################################################",
"########################################################################",
"########################################################################",
"########################################################################",
"########################################################################",
"########################################################################",
"########################################################################",
"########################################################################",
"########################################################################",
"########################################################################",
"########################################################################",
"########################################################################",
"########################################################################",
"###################################     ################################",
"#################################  OOOOO  ##############################",
"################################ OOOOOOOOO #############################",
"############################### OOOOOOOOOOO ############################",
"############################## OOOOOOOOOO@OO ###########################",
"############################## OOOOOOOO@X@X@ ###########################",
"############################# OOOOOOOOO@XXX@ ###########################",
"############################# OOOOOOOOOXXXXX ###########################",
"############################# OOOOOOOOO@XXX@ ###########################",
"############  ############### OOOOOOOOO@X@X@ ###########################",
"############ X ############## OOOOOOOOOOO@O ############################",
"############ XX ############# OOOOOOOOOOOOO ############################",
"#######   # oooX ############ OOOOOOOOOOO@@@ ###########################",
"####### XX  o++o ############ OOOOOOOOOO@@@@. ##########################",
"#   ### XXX  +++o ########### OOOOOOOOO@@@@.. ##########################",
"# XX    XXXX ++++o  ######### OOOOOOOO@@@@@  ###########################",
"# XXXoo XXXooo+++++o    ###   OOOOOOOO@@@@@@ ###########################",
"## XXoo+oXX++oo++++++++o   ooOOOOOOOOO@@@@@@ ###########################",
"### XXoo+oo+++oo++++++++++ooOOOOOOOOOO@@@@@@. ##########################",
"#### Xooo+oo+++ooooooOoooooOOOOOOOOOOO@@@@@@. ##########################",
"#### oXooo+oo+++o+++oOOOOOOOOOOOOOOOOO@@@@@@.. #########################",
"#### ooooo++oo++o++++oOOOOOOOOOOOOOOOOO@@@@@.. #########################",
"###  oooooo+ooooo++++oOOOOOOOOOOOOOOOOO@@@@@... ########################",
"## ooooooooOOOOOoo++++oOOOOOOOOOOOOOOOO@@@@@... ########################",
"# ooooooOOOOOOOOOOOo++oOOOOOOOOOOOOOOOO@@@@    #########################",
"# ooooOOOOOOOOOOOOoooooOOOOOOOOOOOOOOOO@@@@ ############################",
"# ooooOOOOOOOOOOOoooooOOOOOOOOOOOOOOOO@@@@@ ############################",
"# ooooooOOOOOOOOooooOOOOOOOOOOOOOOOOOO@@@@ #############################",
"# OoooooOOOOOOOOooOOOOOOOOOOOOOOOOOOOO@@@@ #############################",
"# OOOOOoOOOOOOOOOooOOOOOOOOOOOOOOOOOO@@@@. #############################",
" OOOOOOOOOOOOOOOOOOOOOOOOOOOOOOOOOOO@@@@.. #############################",
" OOOOOOOOOOOOOOOOOOOOOOOOOOOOOOOOOOO  .... #############################",
" O   OOO    ..OOO    ..OOO    ..OOO ## ... #############################",
"  ### OO ### ..OO ### ..OO ### ..OO ### .. #############################",
"#####   #####    #####    #####    #####   #############################"
};
