/* XPM */
static char *result[] = {
/* columns rows colors chars-per-pixel */
"32 32 97 2 ",
"   c #96BC20",
".  c #90B41F",
"X  c #A5C92E",
"o  c #88AB1D",
"O  c #A0C52D",
"+  c #95BB20",
"@  c #A6CA2E",
"#  c #8EB21E",
"$  c #8FB31F",
"%  c #8DB11E",
"&  c #91B71D",
"*  c #A7CB2F",
"=  c #95BB1F",
"-  c #94BA1F",
";  c #83A61B",
":  c #9FC42C",
">  c #8BAF1D",
",  c #8AB01A",
"<  c #84A71B",
"1  c #9FC42D",
"2  c #A4C92D",
"3  c #8FB51D",
"4  c #ABD030",
"5  c #8CB01D",
"6  c #89AD1C",
"7  c #7EA119",
"8  c #89AF1A",
"9  c #85AB18",
"0  c #90B61D",
"q  c #96BB26",
"w  c #ACD130",
"e  c #7C9F17",
"r  c #7AA013",
"t  c #84A81A",
"y  c #8CB21B",
"u  c #8AAE1D",
"i  c #8EB41C",
"p  c #92B81E",
"a  c #88AC1C",
"s  c #7EA217",
"d  c #A4C82D",
"f  c #9EC32C",
"g  c #9FC329",
"h  c #81A716",
"j  c #87AD19",
"k  c #82A619",
"l  c #88AE19",
"z  c #93B91F",
"x  c #A0C529",
"c  c #7CA016",
"v  c #789E12",
"b  c #86AA1B",
"n  c #8AAF1B",
"m  c #86AC19",
"M  c #80A519",
"N  c #9BC026",
"B  c #8AAF1F",
"V  c #83A719",
"C  c #8AAE1C",
"Z  c #7C9F18",
"A  c #739712",
"S  c #9ABE25",
"D  c #A1C52B",
"F  c #A0C52A",
"G  c #759814",
"H  c #87AB1B",
"J  c #7DA314",
"K  c #7B9E17",
"L  c #81A518",
"P  c #9CC12A",
"I  c #94B921",
"U  c #99BE25",
"Y  c #91B71E",
"T  c #87AD18",
"R  c #6D9010",
"E  c #90B523",
"W  c #83A917",
"Q  c #8CB21C",
"!  c #95BA22",
"~  c #96BB23",
"^  c #82A816",
"/  c #779B14",
"(  c #82A817",
")  c #7A9D16",
"_  c #93B825",
"`  c #AACF2F",
"'  c #89AF19",
"]  c #8DB31C",
"[  c #88AE1A",
"{  c #A3C72C",
"}  c #8DB31B",
"|  c #98BD28",
" . c #9CC028",
".. c #7CA214",
"X. c #93B91E",
"o. c #99BE28",
"O. c white",
/* pixels */
"  .     .     X     . .     .     o   .         O             . ",
"    . .   .     O   X           .     .   o     . X + X   . .   ",
". . .     .   . +     o   .   X     .     .     .       .     . ",
".     O     .   o   . o   .   O   . @ .     # +     .   o   X   ",
"  X O     .       + .           $       O X   .   o % # + . O X ",
"  X       .   X X   &   * =     - ;   .   : + X   o > , <     O ",
"      . o   $ + 1 2 3 4   o 5 - 6 7 .       O . .   8 9 . -   . ",
"  o     o . - 5 0 q . w . e   . r   . t   8 y     u i 8 8 > .   ",
".   $ + . p   a . s .     . . o   .     o .   .   O     d     . ",
"  .   . f g       .   h   j k .   j   . o y j l     X . .       ",
". o .   z O 4   x j j c j . v     w h h h k v .           . .   ",
". o         O w j   b y h h . h h v n y j y   . m .   . o .     ",
"  . .   .   >     . j h M   j N . j B h w . . y V e C +         ",
"  .     . + 5 o   h v     w . O .   y . j h   B     a     X   . ",
"    X     @   Z .   v A h         6 3 c   .     O S z   X O     ",
".     D p F       M h j j k   c k j     . G j     O X   O     . ",
"  . + H J   h .     w   v h k b j j K     o   .   L P + .   o   ",
"  .     h G .     j O h I j   G . v h y j k     h     y 3 .     ",
"    + U v h h b 3 Y p > y   . o h y w h j   y y A h l s T i   o ",
"  X O , j k j R h k h   .     j j . O w v j N   j k R .   O     ",
"X O     . c v G   o b         .   . y E k I k h c   G W Q   X   ",
"O =     Q   j A v h   .   @     3 l A A v     .   c   . .   O   ",
"  .   .     ! l j .       O X     ~ h   ^ / ( 8 ) .     o -   . ",
".       $ i _   `   . 8 -   O . d . h .       - i   '   ] .     ",
"  o   o .   - $ .   [ 7 5     - y [     3 d   . = 3 4     - .   ",
"    . o     .     .       > p   . o .     = O X   * O     . o   ",
"  .             .   { y         . j j } . .   1 - | 6 .       . ",
"    O     X   X   . O  ...h w   j l 8 V , o X.- = $ $     .     ",
"  X .     O X     .   o.l 4 . .   ` 0   + - X.+ .   o     X   . ",
"X O     .   O . . .   = % X.  o z z O X     X       o .     X   ",
"O   .       .     o         .   .     O   X     o .     .   O   ",
"      .   . .   .     X   . .   .   .   .   . .     .     . .   "
};
