/* XPM */
static char *result[] = {
/* columns rows colors chars-per-pixel */
"32 32 102 2 ",
"   c #96BC20",
".  c #90B41F",
"X  c #A5C92E",
"o  c #88AB1D",
"O  c #A0C52D",
"+  c #A2C72E",
"@  c #9BC021",
"#  c #A8CD2F",
"$  c #A1C52D",
"%  c #97BD20",
"&  c #9EC222",
"*  c #AAC925",
"=  c #A4C724",
"-  c #A3C623",
";  c #97B820",
":  c #9CC122",
">  c #98BE21",
",  c #8AAD1D",
"<  c #92B620",
"1  c #98BD20",
"2  c #A7CB2F",
"3  c #9ABC21",
"4  c #9DC122",
"5  c #9EBF22",
"6  c #A5C724",
"7  c #A2C62E",
"8  c #ABCF30",
"9  c #96B720",
"0  c #B1D127",
"q  c #A2C523",
"w  c #9CBE22",
"e  c #A1C523",
"r  c #A5C824",
"t  c #A4C624",
"y  c #95B820",
"u  c #97BC20",
"i  c #91B51F",
"p  c #99BB21",
"a  c #ADD031",
"s  c #A3C72E",
"d  c #AED031",
"f  c #A9CB25",
"g  c #9FC322",
"h  c #A1C423",
"j  c #A6CA2E",
"k  c #A3C523",
"l  c #ACD130",
"z  c #B4D633",
"x  c #A4C424",
"c  c #B0D027",
"v  c #C2E038",
"b  c #B9D735",
"n  c #B7D834",
"m  c #B2D233",
"M  c #9DC121",
"N  c #94B720",
"B  c #89AC1D",
"V  c #9DBE22",
"C  c #B1D133",
"Z  c #ADCB26",
"A  c #97BA21",
"S  c #B8DA35",
"D  c #B5D633",
"F  c #A4C82E",
"G  c #A9CD2F",
"H  c #9DBD22",
"J  c #AACD30",
"K  c #99BE21",
"L  c #A7CA25",
"P  c #ACCE31",
"I  c #A6C924",
"U  c #99BA21",
"Y  c #BBDC36",
"T  c #A2C623",
"R  c #B2D432",
"E  c #AFCF26",
"W  c #99BF21",
"Q  c #A8CA25",
"!  c #93B620",
"~  c #A6C524",
"^  c #9BBB21",
"/  c #98B821",
"(  c #9ABF21",
")  c #A0C423",
"_  c #ABC926",
"`  c #90B31F",
"'  c #A1C422",
"]  c #B3D533",
"[  c #98BD21",
"{  c #91B31F",
"}  c #9CC121",
"|  c #B0D133",
" . c #9CBD22",
".. c #AFD131",
"X. c #AECE26",
"o. c #A9CA25",
"O. c #9CC021",
"+. c #97BA20",
"@. c #A6C92F",
"#. c #ABD030",
"$. c #9AC021",
"%. c white",
/* pixels */
"  .     .     X     . .     .     o   .         O             . ",
"    . .   .     O   X           .     .   o     . X   X   . .   ",
". . .     .   .       o   .   X     .     .     .       .     . ",
".     + @   .   o   . o   .   O   . # .     .       .   o   X   ",
"  X $     .         .       % & *     @ O X   .   o . .   . O X ",
"  X   %   .   X X   %   X %   = - ;   . : + > X   , < % o     O ",
"      . o   .   O X 1 2   o 3 4 5 ; .       O . .   6 : . %   . ",
"  o     o .   .   7 . 8 . 9   . 0   . 5   - q     w e r t y .   ",
".   . u . %   i . p .     . . o   .     o .   .   O     a     . ",
"  .   . s d       .   f   - 5 .   -   . o g - h     j . .       ",
". o . : k O l   z - - x - . 0     l f f f 5 c .           . .   ",
". o         O l -   3 g f f . f f 0 v g - g   . % .   . o .     ",
"  . .   .   5     . - f b   - n . - m f l . . M N B .     %     ",
"  .     i e V o   f 0     l . O .   g . - f   C     N     j   . ",
"    X     2   ; .   0 Z f         A 4 x   .     O S r   D F     ",
".     X   G       b f - - 5   x 5 -     . H -     O z g J     . ",
"  .   . K   L .     l   0 f 5 3 - - ;     o   .   x P I .   o   ",
"  .     g U .     - O f Y -   H . 0 f g - 5     f     T K .     ",
"      R E f f 3 4 @ W y g   . o f g l f -   g g Z Q g !       o ",
"  X O g - 5 - ~ f 5 f   .     - - . O l 0 - n   - V ^ .   O     ",
"X O     . x 0 H   o 3         .   . g P 5 Y 5 f x   / (     X   ",
"O       T   - Z 0 f   .   l     g - Z Z 0     .   x   . .   O   ",
"  .   .     Y - - .       O n     Y f   f Z 0 f H .     o %   . ",
".     ) _ 0 m   l   . f 0 0 b x z . Q .       f 0   -   & .     ",
"  o   ` .   Q 5 .   - ; 5   - - Q '     M ] f Z 0 f l     [ .   ",
"    . { }   .     .       5 -   . o .     & C n   l O     . o   ",
"  .         % @ <   J g         . u     . .   | Q C  ..       . ",
"    O     X   X   . O ..X.o.l   (     .   o & g O.+.w >   .     ",
"  X .     O X     .   @.- #.. .   X       u $.K i   o %   X   . ",
"X O     .   O . . .   % ! K   o %   O X     X       B .     X   ",
"O   .       .     o         .   .     O   X     o .     .   O   ",
"      .   . .   .     X   . .   .   .   .   . .     .     . .   "
};
