/* XPM */
static char *result[] = {
/* columns rows colors chars-per-pixel */
"32 32 57 1 ",
"  c #88AB1E",
". c #90B41F",
"X c #8BAC22",
"o c #92AF2B",
"O c #92B422",
"+ c #96BC20",
"@ c #99BC25",
"# c #95B529",
"$ c #99B72E",
"% c #9CBD2A",
"& c #96B131",
"* c #9CB633",
"= c #9DBB31",
"- c #9EB43D",
"; c #A1BF2E",
": c #A1BD34",
"> c #A1B73A",
", c #A4BC3B",
"< c #A0C52D",
"1 c #A5C92E",
"2 c #A4C534",
"3 c #A7C931",
"4 c #A9C935",
"5 c #A7C13B",
"6 c #AAC43D",
"7 c #ABC93A",
"8 c #A7BA43",
"9 c #A9BB44",
"0 c #A7B448",
"q c #ADBC4B",
"w c #B2BC53",
"e c #B6BC58",
"r c #B9BC5D",
"t c #BDBC63",
"y c #BFBC68",
"u c #C0BC6A",
"i c #ABC044",
"p c #AFC844",
"a c #AEC24A",
"s c #B1C34D",
"d c #B4C94C",
"f c #B3C152",
"g c #BFCA57",
"h c #B6C258",
"j c #B9C35E",
"k c #BCC464",
"l c #BFC368",
"z c #C5CB5E",
"x c #C1C56D",
"c c #C5C96E",
"v c #D1CF6F",
"b c #C5C574",
"n c #C6C971",
"m c #C9C67A",
"M c #CECB7C",
"N c #D5D174",
"B c #D0CC80",
/* pixels */
"+.++.++1+...++.++ +..+++1++++++.",
"++..+.++<+1+++++.++.+ ++.1+1+..+",
"....+.+.+++ +.+1++.++.++.+++.++.",
"..+1++.+ +. +.+<+.1.++.+++.+ +1+",
"+11++.++++.+++++.+++<1+O@X..+.<1",
"+1+++.+13@++1++.+ +.+<+4%#++ .+<",
"+++. @@@24@3+ .+. .+@@2$>,@+.++.",
"+ .+XO%O:p=7#.%O+++#%++=,,<++..+",
".+.+.%%**8=%::*&%$%%#O%>i5@+1+..",
"+.+.27:589=%59qqi%%=o%2i:%3+O+++",
". .+@342p,,>9tllgd6i98i-%@+++..+",
". ++++14%%,qrvbbxllkwqi=%O.. .++",
"+..+.+..+O5ktmBmBMbxki$@O .+++++",
"+.++.+O +;,lvmmuyytji=@<++.++1+.",
"++1++1+X#:hnMmummbj,%O@+21++11++",
".++1+1+%2shxnmmmNvf%.X+@@<3@1++.",
"+.+.+.+O:pkltmyyMnq$+o=,2*6=#%X+",
"+.+++ O@%8srbbbtyxh5:>,iaaai:=%@",
"+++1+++O%:akxbbbtrf,::::8fq9i5%X",
"+11++.+ %>fzylccljs6%:7%,90qii@+",
"1<++..+X%,qwewkwqwsp>d8,,8-5:%4+",
"<+++++@O:qfwadiai,>-55,>:=%@O@<+",
"+.+.@@4:,8fa:27226:=%@::oO++X++O",
".+++O%6,dsq6%+<@4O@@+@%%%++++.+.",
"+ . +%:=>,i&#+.+@+++@1%@++1.@+.+",
"++..@@#%=,2@%O+@O ++.@23+1<+...+",
"+.++++@%&:4@@@@+X.++.+@1@<O.++..",
"++<++1+3%#24%%3++++.. +@+O.++.++",
"+1.++<1+@O%2%4..+1++++++.+.++1+.",
"11++.+<...@%@++.++11++1++. .++1+",
"1..+++.++X++@+.+.++1+1++X.++.+1.",
"++.X+..+.++1+..+.+...+..++.++..+"
};
