/* XPM */
static char *result[] = {
/* columns rows colors chars-per-pixel */
"72 72 8 1 ",
"  c #25131A",
". c #1F3736",
"X c #3D253B",
"o c #523B40",
"O c #5C6B53",
"+ c #895A45",
"@ c #DFBBB3",
"# c None",
/* pixels */
"########################################################################",
"########################################################################",
"########################################################################",
"########################################################################",
"########################################################################",
"########################################################################",
"########################################################################",
"########################################################################",
"########################################################################",
"########################################################################",
"########################################################################",
"########################################################################",
"########################################################################",
"########################################################################",
"########################################################################",
"########################################################################",
"########################################################################",
"########################################################################",
"########################################################################",
"########################################################################",
"########################################################################",
"########################################################################",
"########################################################################",
"########################################################################",
"########################################################################",
"########################################################################",
"########################################################################",
"########################################################################",
"########################################################################",
"########################################################################",
"########################################################################",
"########################################################################",
"########################################################################",
"########################################################################",
"########################################################################",
"########################################################################",
"########################################################################",
"########################################################################",
"###############################     ####################################",
"#############################  OOOOO  ##################################",
"############################ OOOOOOOOO #################################",
"########################### O@OOOOOOOOO ################################",
"########################## @X@X@OOOOOOOO ###############################",
"########################## @XXX@OOOOOOOO ###############################",
"########################## XXXXXOOOOOOOOO ##############################",
"########################## XXXXXOOOOOOOOO ##############################",
"########################## XXXXXOOOOOOOOO ##############################",
"########################## @XXX@OOOOOOOOO ###############  #############",
"########################## @X@X@OOOOOOOOO ############## X #############",
"########################### O@OOOOOOOOOOO ############# XX ##   ########",
"########################## @@@@OOOOOOOOOO ############ Xooo  XX ########",
"######################### .@@@@@OOOOOOOOO ############ o++o XXX ##   ###",
"######################### .@@@@@@OOOOOOOO ########### o+++ XXXX   XX ###",
"########################## @@@@@@OOOOOOOO   #######  o++++ oXXX oXXX ###",
"########################## @@@@@@OOOOOOOOOoo       o+++++oo+XXo+oXX ####",
"########################## @@@@@@OOOOOOOOOOoo++o++++++++o+++oo+ooXX ####",
"########################## @@@@@@OOOOOOOOOOOoooo+++++++o+++oo+ooXX #####",
"########################## @@@@@OOOOOOOOOOOOOOOOOOooooo+++oo+oooXo #####",
"######################### .@@@@@OOOOOOOOOOOOOOOOOo++++o++oo++ooooo #####",
"######################### .@@@@@OOOOOOOOOOOOOOOOOo++++ooooo+oooooo  ####",
"######################### .@@@@@OOOOOOOOOOOOOOOOo++++ooOOOOOoooooooo ###",
"######################### ..@@@@OOOOOOOOOOOOOOOOo++oOOOOOOOOOOOoooooo ##",
"##########################  @@@@@OOOOOOOOOOOOOOOooooOOOOOOOOOOOOOoooo ##",
"########################### @@@@@OOOOOOOOOOOOOOOooooooOOOOOOOOOOOoooo ##",
"############################ @@@@OOOOOOOOOOOOOOOOooooooOOOOOOOOoooooo ##",
"############################ @@@@@OOOOOOOOOOOOOOOOOOOooOOOOOOOOoooooO ##",
"############################# @@@@OOOOOOOOOOOOOOOOOOooOOOOOOOOOoOOOOO ##",
"############################# .@@@@OOOOOOOOOOOOOOOOOOOOOOOOOOOOOOOOOOO #",
"############################## ... OOOOOOOOOOOOOOOOOOOOOOOOOOOOOOOOOOO #",
"############################## ... OOO  ...   .OOO   OOO..       OOO   #",
"############################### ..    ## .. ##  OO ##     ####### OO ###",
"################################   ######   ####  ################   ###"
};
