/* XPM */
static char *result[] = {
/* columns rows colors chars-per-pixel */
"72 72 8 1 ",
"  c #25131A",
". c #1F3736",
"X c #3D253B",
"o c #523B40",
"O c #5C6B53",
"+ c #895A45",
"@ c #DFBBB3",
"# c None",
/* pixels */
"########################################################################",
"########################################################################",
"########################################################################",
"########################################################################",
"########################################################################",
"########################################################################",
"########################################################################",
"########################################################################",
"########################################################################",
"########################################################################",
"########################################################################",
"########################################################################",
"########################################################################",
"########################################################################",
"########################################################################",
"########################################################################",
"########################################################################",
"########################################################################",
"########################################################################",
"########################################################################",
"########################################################################",
"########################################################################",
"########################################################################",
"########################################################################",
"########################################################################",
"########################################################################",
"########################################################################",
"########################################################################",
"########################################################################",
"########################################################################",
"########################################################################",
"########################################################################",
"########################################################################",
"########################################################################",
"########################################################################",
"########################################################################",
"##################################     #################################",
"################################  OOOOO  ###############################",
"############################### OOOOOOOOO ##############################",
"############################## OOOOOOOOOOO #############################",
"############################# OOOOOOOOOOOOO ############################",
"############################# OOOOOOOOOO@OO ############################",
"############################ OOOOOOOOO@X@X@ ############################",
"############################ OOOOOOOOO@X@X@ ############################",
"############################ OOOOOOOOO@X@X@ ############################",
"#############  ############# OOOOOOOOOOO@OO ############################",
"############# X ############ OOOOOOOOOOOOO #############################",
"############# XX ########### OOOOOOOOOOOOO #############################",
"############ oooX ########## OOOOOOOOOOO@@@ ############################",
"########   # o++o ########## OOOOOOOOOO@@@@. ###########################",
"######## XX  o+++o ########## OOOOOOOOO@@@@. ###########################",
"######## XXX  ++++o ######### OOOOOOOO@@@@@ ############################",
"##       XXXXoo++++o  ####### OOOOOOOO@@@@@@ ###########################",
"## XXXoo XXXo+oo+++++o   ###  OOOOOOOO@@@@@@ ###########################",
"## XXXoo+oXX+++oo+++++++o   ooOOOOOOOOO@@@@@@ ##########################",
"### XXXoo+oo++++oooooo+++++ooOOOOOOOOOO@@@@@@. #########################",
"#### XXooo+oo++++o+++oOoooooOOOOOOOOOOO@@@@@@. #########################",
"##### XXooo+ooo++o++++OOOOOOOOOOOOOOOOO@@@@@@.. ########################",
"##### ooooo++ooooo++++oOOOOOOOOOOOOOOOOO@@@@@.. ########################",
"####  oooooo+oOOOoo+++oOOOOOOOOOOOOOOOOO@@@@@... #######################",
"### ooooooooOOOOOOOo++oOOOOOOOOOOOOOOOOO@@@@@... #######################",
"## ooooooOOOOOOOOOOoo++OOOOOOOOOOOOOOOOO@@@@    ########################",
"## ooooOOOOOOOOOOOOoooOOOOOOOOOOOOOOOOOO@@@@ ###########################",
"## ooooOOOOOOOOOOOoooOOOOOOOOOOOOOOOOOOO@@@@ ###########################",
"## ooooooOOOOOOOOoooOOOOOOOOOOOOOOOOOOO@@@@ ############################",
"## OoooooOOOOOOOOooOOOOOOOOOOOOOOOOOOOO@@@@ ############################",
"## OOOOOoOOOOOOOOOooOOOOOOOOOOOOOOOOOOO@@@. ############################",
"# OOOOOOOOOOOOOOOOOOOOOOOOOOOOOOOOOOOO@@@. #############################",
"# OOOOOOOOOOOOOOOOOOOOOOOOOOOOOOOOOOOO.... #############################",
"#     OOOO   ..OOOO    ..OOOO  ...OOOO  .. #############################",
"###### OO ### ..OO #### ..OOO # .. OO ##  ##############################",
"#######   ####    ######     ###  #  ###################################"
};
