/* XPM */
static char *result[] = {
/* columns rows colors chars-per-pixel */
"72 72 8 1 ",
"  c #25131A",
". c #1F3736",
"X c #3D253B",
"o c #523B40",
"O c #5C6B53",
"+ c #895A45",
"@ c #DFBBB3",
"# c None",
/* pixels */
"########################################################################",
"########################################################################",
"########################################################################",
"########################################################################",
"########################################################################",
"########################################################################",
"########################################################################",
"########################################################################",
"########################################################################",
"########################################################################",
"########################################################################",
"########################################################################",
"########################################################################",
"########################################################################",
"########################################################################",
"########################################################################",
"########################################################################",
"########################################################################",
"########################################################################",
"########################################################################",
"########################################################################",
"########################################################################",
"########################################################################",
"########################################################################",
"########################################################################",
"########################################################################",
"########################################################################",
"########################################################################",
"########################################################################",
"########################################################################",
"########################################################################",
"########################################################################",
"########################################################################",
"########################################################################",
"########################################################################",
"########################################################################",
"#################################     ##################################",
"###############################  OOOOO  ################################",
"############################## OOOOOOOOO ###############################",
"############################# OOOOOOOOOOO ##############################",
"############################ OOOOOOOOOOOOO #############################",
"############################ OO@OOOOOOOOOO #############################",
"############################ @X@X@OOOOOOOOO ############################",
"############################ @X@X@OOOOOOOOO ############################",
"############################ @X@X@OOOOOOOOO ############################",
"############################ OO@OOOOOOOOOOO #############  #############",
"############################# OOOOOOOOOOOOO ############ X #############",
"############################# OOOOOOOOOOOOO ########### XX #############",
"############################ @@@OOOOOOOOOOO ########## Xooo ############",
"########################### .@@@@OOOOOOOOOO ########## o++o #   ########",
"########################### .@@@@OOOOOOOOO ########## o+++o  XX ########",
"############################ @@@@@OOOOOOOO ######### o++++  XXX ########",
"########################### @@@@@@OOOOOOOO #######  o++++ooXXXX       ##",
"########################### @@@@@@OOOOOOOO  ###   o+++++oo+oXXX ooXXX ##",
"########################## @@@@@@OOOOOOOOOoo   o+++++++oo+++XXo+ooXXX ##",
"######################### .@@@@@@OOOOOOOOOOoo+++++oooooo++++oo+ooXXX ###",
"######################### .@@@@@@OOOOOOOOOOOoooooOo+++o++++oo+oooXX ####",
"######################## ..@@@@@@OOOOOOOOOOOOOOOOO++++o++ooo+oooXX #####",
"######################## ..@@@@@OOOOOOOOOOOOOOOOOo++++ooooo++ooooo #####",
"####################### ...@@@@@OOOOOOOOOOOOOOOOOo+++ooOOOo+oooooo  ####",
"####################### ...@@@@@OOOOOOOOOOOOOOOOOo++oOOOOOOOoooooooo ###",
"########################    @@@@OOOOOOOOOOOOOOOOO++ooOOOOOOOOOOoooooo ##",
"########################### @@@@OOOOOOOOOOOOOOOOOOoooOOOOOOOOOOOOoooo ##",
"########################### @@@@OOOOOOOOOOOOOOOOOOOoooOOOOOOOOOOOoooo ##",
"############################ @@@@OOOOOOOOOOOOOOOOOOOoooOOOOOOOOoooooo ##",
"############################ @@@@OOOOOOOOOOOOOOOOOOOOooOOOOOOOOoooooO ##",
"############################ .@@@OOOOOOOOOOOOOOOOOOOooOOOOOOOOOoOOOOO ##",
"############################# .@@@OOOOOOOOOOOOOOOOOOOOOOOOOOOOOOOOOOOO #",
"############################# ....OOOOOOOOOOOOOOOOOOOOOOOOOOOOOOOOOOOO #",
"############################# ..  OOOO...  OOOO..    OOOO..   OOOO     #",
"##############################  ## OO .. # OOO.. #### OO.. ### OO ######",
"###################################  #  ###     ######    ####   #######"
};
