/* XPM */
static char *result[] = {
/* columns rows colors chars-per-pixel */
"72 72 8 1 ",
"  c #25131A",
". c #1F3736",
"X c #3D253B",
"o c #523B40",
"O c #5C6B53",
"+ c #895A45",
"@ c #DFBBB3",
"# c None",
/* pixels */
"########################################################################",
"########################################################################",
"########################################################################",
"########################################################################",
"########################################################################",
"########################################################################",
"########################################################################",
"########################################################################",
"########################################################################",
"########################################################################",
"########################################################################",
"########################################################################",
"########################################################################",
"########################################################################",
"########################################################################",
"########################################################################",
"########################################################################",
"########################################################################",
"########################################################################",
"########################################################################",
"########################################################################",
"########################################################################",
"########################################################################",
"########################################################################",
"########################################################################",
"########################################################################",
"########################################################################",
"########################################################################",
"########################################################################",
"########################################################################",
"########################################################################",
"########################################################################",
"########################################################################",
"########################################################################",
"########################################################################",
"########################################################################",
"########################################################################",
"########################################################################",
"####################################     ###############################",
"##################################  OOOOO  #############################",
"################################# OOOOOOOOO ############################",
"################################ OOOOOOOOO@O ###########################",
"############################### OOOOOOOO@X@X@ ##########################",
"############################### OOOOOOOO@XXX@ ##########################",
"############################## OOOOOOOOOXXXXX ##########################",
"############################## OOOOOOOOOXXXXX ##########################",
"############################## OOOOOOOOOXXXXX ##########################",
"#############  ############### OOOOOOOOO@XXX@ ##########################",
"############# X ############## OOOOOOOOO@X@X@ ##########################",
"########   ## XX ############# OOOOOOOOOOO@O ###########################",
"######## XX  oooX ############ OOOOOOOOOO@@@@ ##########################",
"###   ## XXX o++o ############ OOOOOOOOO@@@@@. #########################",
"### XX   XXXX +++o ########### OOOOOOOO@@@@@@. #########################",
"### XXXo XXXo ++++o  #######   OOOOOOOO@@@@@@ ##########################",
"#### XXo+oXX+oo+++++o       ooOOOOOOOOO@@@@@@ ##########################",
"#### XXoo+oo+++o++++++++o++ooOOOOOOOOOO@@@@@@ ##########################",
"##### XXoo+oo+++o+++++++ooooOOOOOOOOOOO@@@@@@ ##########################",
"##### oXooo+oo+++oooooOOOOOOOOOOOOOOOOOO@@@@@ ##########################",
"##### ooooo++oo++o++++oOOOOOOOOOOOOOOOOO@@@@@. #########################",
"####  oooooo+ooooo++++oOOOOOOOOOOOOOOOOO@@@@@. #########################",
"### ooooooooOOOOOoo++++oOOOOOOOOOOOOOOOO@@@@@. #########################",
"## ooooooOOOOOOOOOOOo++oOOOOOOOOOOOOOOOO@@@@.. #########################",
"## ooooOOOOOOOOOOOOOooooOOOOOOOOOOOOOOO@@@@@  ##########################",
"## ooooOOOOOOOOOOOooooooOOOOOOOOOOOOOOO@@@@@ ###########################",
"## ooooooOOOOOOOOooooooOOOOOOOOOOOOOOOO@@@@ ############################",
"## OoooooOOOOOOOOooOOOOOOOOOOOOOOOOOOO@@@@@ ############################",
"## OOOOOoOOOOOOOOOooOOOOOOOOOOOOOOOOOO@@@@ #############################",
"# OOOOOOOOOOOOOOOOOOOOOOOOOOOOOOOOOOO@@@@. #############################",
"# OOOOOOOOOOOOOOOOOOOOOOOOOOOOOOOOOOO ... ##############################",
"#   OOO       ..OOO   OOO.   ...  OOO ... ##############################",
"### OO #######     ## OO  ## .. ##    .. ###############################",
"###   ################  ####   ######   ################################"
};
